<svg width="12" height="12" viewBox="0 0 12 12" fill="none" xmlns="http://www.w3.org/2000/svg">
<path d="M0.193685 10.8839L9.74335 1.30643L0.789491 1.30613C0.424336 1.30611 0.128887 1.014 0.128912 0.653022C0.128938 0.292044 0.424428 -2.51625e-05 0.789583 1.62594e-09L11.3394 0.00040968C11.7046 0.000434844 12 0.292545 12 0.653523L11.9996 11.0827C11.9996 11.4437 11.7041 11.7357 11.3389 11.7357C10.9738 11.7357 10.6783 11.4436 10.6783 11.0826L10.6786 2.23115L1.12898 11.8086C0.870753 12.0638 0.451806 12.0638 0.19362 11.8085C-0.0645655 11.5533 -0.0645363 11.1391 0.193685 10.8839Z" fill="white"/>
</svg>
