<svg
  width="16"
  height="17"
  viewBox="0 0 16 17"
  fill="none"
  xmlns="http://www.w3.org/2000/svg">
  <path
    d="M3.37576 13.6C2.74567 13.6 2.14138 13.3657 1.69584 12.9487C1.2503 12.5318 1 11.9662 1 11.3765V6.92941C1 4.13444 1 2.73658 1.92813 1.86866C2.85626 1.00074 4.34903 1 7.33535 1H10.503C11.1331 1 11.7374 1.23426 12.1829 1.65126C12.6285 2.06825 12.8788 2.63381 12.8788 3.22353M3.37576 7.67059C3.37576 5.57454 3.37576 4.52578 4.07185 3.87502C4.76716 3.22353 5.88772 3.22353 8.12727 3.22353H10.503C12.7426 3.22353 13.8631 3.22353 14.5584 3.87502C15.2545 4.52578 15.2545 5.57454 15.2545 7.67059V11.3765C15.2545 13.4725 15.2545 14.5213 14.5584 15.172C13.8631 15.8235 12.7426 15.8235 10.503 15.8235H8.12727C5.88772 15.8235 4.76716 15.8235 4.07185 15.172C3.37576 14.5213 3.37576 13.4725 3.37576 11.3765V7.67059Z"
    stroke="#183E7F"
    stroke-width="1.3" />
</svg>