<svg width="21" height="21" viewBox="0 0 21 21" fill="none" xmlns="http://www.w3.org/2000/svg">
<g opacity="0.4">
<path d="M19.126 0.322C19.5546 -0.106617 20.2494 -0.106617 20.678 0.322C21.1066 0.750618 21.1066 1.44538 20.678 1.874L12.052 10.5L20.678 19.126L20.8195 19.2975C21.1008 19.7235 21.0531 20.3029 20.678 20.678C20.3029 21.0531 19.7235 21.1008 19.2975 20.8195L19.126 20.678L10.5 12.052L1.874 20.678C1.44538 21.1066 0.750618 21.1066 0.322 20.678C-0.106617 20.2494 -0.106617 19.5546 0.322 19.126L8.948 10.5L0.322001 1.874L0.180521 1.70251C-0.100811 1.27649 -0.0530599 0.697061 0.322001 0.322001C0.697061 -0.0530599 1.27649 -0.100811 1.70251 0.180521L1.874 0.322001L10.5 8.948L19.126 0.322Z" fill="white"/>
</g>
</svg>
