<svg width="13" height="13" viewBox="0 0 13 13" fill="none" xmlns="http://www.w3.org/2000/svg">
<path d="M7.04142 5.49381C7.04142 5.79707 6.79874 6.04319 6.49973 6.04319C6.20072 6.04319 5.95804 5.79707 5.95804 5.49381C5.95804 5.19055 6.20072 4.94443 6.49973 4.94443C6.79874 4.94443 7.04142 5.19055 7.04142 5.49381ZM9.20818 4.94443C8.90916 4.94443 8.66649 5.19055 8.66649 5.49381C8.66649 5.79707 8.90916 6.04319 9.20818 6.04319C9.50719 6.04319 9.74986 5.79707 9.74986 5.49381C9.74986 5.19055 9.50719 4.94443 9.20818 4.94443ZM3.79128 4.94443C3.49227 4.94443 3.24959 5.19055 3.24959 5.49381C3.24959 5.79707 3.49227 6.04319 3.79128 6.04319C4.0903 6.04319 4.33297 5.79707 4.33297 5.49381C4.33297 5.19055 4.0903 4.94443 3.79128 4.94443ZM13 1.92283V9.06478C13 10.1251 12.1495 10.9876 11.1041 10.9876H9.19084L7.03221 12.7978C6.88325 12.9324 6.69311 13 6.50244 13C6.3096 13 6.11459 12.9308 5.96021 12.7918L3.8487 10.9876H1.89591C0.850452 10.9876 2.58625e-07 10.1251 2.58625e-07 9.06478V1.92283C-0.000541431 0.862528 0.849911 0 1.89537 0H11.1041C12.1495 0 13 0.862528 13 1.92283ZM12.4583 1.92283C12.4583 1.16579 11.8511 0.549381 11.1041 0.549381H1.89537C1.14838 0.549381 0.541148 1.16579 0.541148 1.92283V9.06478C0.541148 9.82183 1.14838 10.4382 1.89537 10.4382H3.94729C4.01121 10.4382 4.07296 10.4613 4.12171 10.5031L6.31447 12.3765C6.42227 12.4742 6.57719 12.4731 6.67957 12.3808L8.92108 10.5014C8.96983 10.4608 9.0305 10.4382 9.09334 10.4382H11.1041C11.8511 10.4382 12.4583 9.82183 12.4583 9.06478V1.92283Z" fill="white"/>
</svg>
