<svg width="13" height="13" viewBox="0 0 13 13" fill="none" xmlns="http://www.w3.org/2000/svg">
<path d="M11.1474 0C11.6386 0 12.1099 0.19462 12.4576 0.541598C12.8046 0.889262 12.9999 1.3607 13 1.85189C13 2.34313 12.8046 2.81446 12.4576 3.16218L3.38744 12.2329C3.14485 12.4768 2.85655 12.6706 2.53874 12.8023C2.22088 12.934 1.87889 13.0009 1.53485 13H0.390456C0.28694 13 0.187563 12.9588 0.114365 12.8856C0.0411825 12.8124 7.14982e-06 12.713 7.14982e-06 12.6095L7.14982e-06 11.4642C-0.000800227 11.1202 0.0667792 10.779 0.198499 10.4611C0.330251 10.1433 0.52392 9.85409 0.767836 9.61153L9.83638 0.541598L9.8372 0.542415C10.1849 0.195205 10.656 4.21792e-06 11.1474 0ZM1.32002 10.1637C1.14861 10.3342 1.01234 10.5368 0.919768 10.7601C0.827201 10.9835 0.780325 11.2233 0.780905 11.4651V12.219H1.53566C2.02273 12.2176 2.48961 12.0247 2.83526 11.6815L9.83965 4.6816L9.72202 4.56315L8.43877 3.28063L8.32115 3.16218L1.32002 10.1637ZM11.1458 0.78013C11.0049 0.780017 10.8651 0.808064 10.7349 0.861819C10.6375 0.902091 10.5466 0.956253 10.4653 1.02275L10.3869 1.09382L8.87006 2.61078L8.9885 2.72841L10.2718 4.00848L10.3894 4.12693L11.9022 2.61241L11.903 2.61323C12.0027 2.51369 12.0817 2.39536 12.1358 2.26524C12.1898 2.1351 12.2181 1.99526 12.2183 1.85434C12.2184 1.71362 12.1903 1.57434 12.1366 1.44426C12.0828 1.31401 12.0041 1.19521 11.9046 1.09545C11.8051 0.995708 11.6868 0.916708 11.5566 0.862636C11.4265 0.808566 11.2867 0.780284 11.1458 0.78013Z" fill="white"/>
</svg>
