<svg width="21" height="21" viewBox="0 0 21 21" fill="none" xmlns="http://www.w3.org/2000/svg">
<path d="M1.50977 20.4922L1.41602 20.5C1.47445 20.4976 1.53195 20.4899 1.58789 20.4785C1.56211 20.4838 1.53613 20.4888 1.50977 20.4922ZM1.09961 20.4385C1.16963 20.4646 1.24326 20.4841 1.32031 20.4932C1.24321 20.4841 1.16966 20.4647 1.09961 20.4385ZM15.3613 20.4414C15.2956 20.4652 15.2271 20.4833 15.1553 20.4922C15.2271 20.4834 15.2957 20.4652 15.3613 20.4414ZM14.79 20.4658C14.7871 20.465 14.7841 20.4647 14.7812 20.4639C14.7841 20.4647 14.7871 20.465 14.79 20.4658ZM15.4102 20.4238C15.3943 20.4306 15.3777 20.4355 15.3613 20.4414C15.3777 20.4355 15.3943 20.4306 15.4102 20.4238ZM1.09961 20.4385C1.08779 20.4341 1.07604 20.4297 1.06445 20.4248C1.07604 20.4297 1.08778 20.4341 1.09961 20.4385ZM1.7666 20.4248C1.75694 20.4286 1.74711 20.432 1.7373 20.4355C1.74711 20.432 1.75694 20.4286 1.7666 20.4248ZM14.6436 20.4141C14.6389 20.4119 14.6345 20.4094 14.6299 20.4072C14.6345 20.4094 14.6389 20.4119 14.6436 20.4141ZM15.4775 20.3906C15.4711 20.394 15.4646 20.3972 15.458 20.4004C15.4646 20.3972 15.4711 20.394 15.4775 20.3906ZM1.00586 20.3975C1.0013 20.3952 0.996703 20.393 0.992188 20.3906C0.996704 20.393 1.0013 20.3952 1.00586 20.3975ZM1.91016 20.3545C1.90727 20.3562 1.90428 20.3577 1.90137 20.3594C1.90428 20.3577 1.90727 20.3562 1.91016 20.3545ZM14.5068 20.3379C14.5022 20.3348 14.4977 20.3313 14.4932 20.3281C14.4977 20.3313 14.5022 20.3347 14.5068 20.3379ZM0.858398 20.3057C0.855446 20.3034 0.852533 20.3011 0.849609 20.2988C0.852533 20.3011 0.855445 20.3034 0.858398 20.3057ZM15.6201 20.2988C15.6172 20.3011 15.6143 20.3034 15.6113 20.3057C15.6143 20.3034 15.6172 20.3011 15.6201 20.2988ZM8.22852 12.21C10.648 12.2254 12.5055 12.894 13.7686 14.1289C15.0315 15.3637 15.7273 17.1909 15.7695 19.5781L15.7578 19.7197C15.6965 20.0421 15.4088 20.2934 15.0508 20.2998H15.0371C14.6839 20.2996 14.394 20.0596 14.3223 19.7432L14.3057 19.6035C14.2706 17.6412 13.7638 16.1432 12.7383 15.1348C11.777 14.1897 10.389 13.7037 8.59375 13.6367L8.22949 13.6289H8.22656C6.23637 13.6409 4.72774 14.1118 3.70996 15.1143C2.75576 16.0541 2.26418 17.4305 2.17676 19.2363L2.16406 19.6035C2.1571 19.9773 1.83138 20.2793 1.41211 20.2988C1.00671 20.2879 0.693058 19.9624 0.700195 19.5781L0.71582 19.1309C0.831754 16.9273 1.50268 15.2499 2.67578 14.1016C3.92711 12.8767 5.77949 12.225 8.22852 12.21ZM15.8301 20.0664C15.774 20.1552 15.7032 20.2337 15.6201 20.2988C15.7033 20.2338 15.7739 20.1551 15.8301 20.0664ZM2.05371 20.252C2.04704 20.2577 2.04004 20.263 2.0332 20.2686C2.04004 20.263 2.04704 20.2577 2.05371 20.252ZM0.738281 20.1953C0.734529 20.1912 0.731216 20.1868 0.727539 20.1826C0.731215 20.1868 0.734529 20.1912 0.738281 20.1953ZM2.18164 20.1182C2.17199 20.1306 2.16166 20.1424 2.15137 20.1543C2.16167 20.1424 2.17198 20.1306 2.18164 20.1182ZM14.2861 20.1279C14.2836 20.1246 14.2808 20.1215 14.2783 20.1182C14.2808 20.1215 14.2836 20.1246 14.2861 20.1279ZM2.22559 20.0557C2.21664 20.0695 2.20794 20.0834 2.19824 20.0967C2.20795 20.0834 2.21663 20.0695 2.22559 20.0557ZM0.639648 20.0664C0.632142 20.0546 0.625118 20.0425 0.618164 20.0303C0.625113 20.0425 0.632147 20.0545 0.639648 20.0664ZM15.8545 20.0264C15.8468 20.04 15.8384 20.0532 15.8301 20.0664C15.8384 20.0532 15.8468 20.04 15.8545 20.0264ZM2.25488 20.0098C2.24596 20.0256 2.23547 20.0404 2.22559 20.0557C2.23546 20.0404 2.24597 20.0256 2.25488 20.0098ZM14.2109 20.0098C14.2044 19.9976 14.1983 19.9852 14.1924 19.9727C14.1983 19.9852 14.2044 19.9976 14.2109 20.0098ZM15.8955 19.9453C15.888 19.9624 15.8806 19.9795 15.8721 19.9961C15.8806 19.9795 15.8881 19.9625 15.8955 19.9453ZM15.9248 19.8672C15.9194 19.8837 15.9136 19.8999 15.9072 19.916C15.9136 19.8999 15.9194 19.8837 15.9248 19.8672ZM0.560547 19.9111C0.554934 19.8967 0.549785 19.882 0.544922 19.8672C0.549778 19.882 0.554941 19.8966 0.560547 19.9111ZM2.33398 19.8125C2.32905 19.8309 2.32447 19.8493 2.31836 19.8672C2.32448 19.8493 2.32905 19.8309 2.33398 19.8125ZM14.1465 19.8584C14.1447 19.8526 14.1433 19.8467 14.1416 19.8408C14.1433 19.8467 14.1447 19.8526 14.1465 19.8584ZM14.1113 19.6992C14.1173 19.7478 14.1282 19.7949 14.1416 19.8408C14.1365 19.8234 14.131 19.806 14.127 19.7881L14.1113 19.6992ZM0.535156 19.8369C0.530045 19.8192 0.525502 19.8013 0.521484 19.7832C0.525494 19.8013 0.530053 19.8192 0.535156 19.8369ZM15.9434 19.7969C15.9402 19.8102 15.9383 19.8238 15.9346 19.8369C15.9383 19.8238 15.9402 19.8102 15.9434 19.7969ZM15.9668 19.668C15.9659 19.6785 15.9632 19.6888 15.9619 19.6992C15.9635 19.6866 15.9658 19.674 15.9668 19.6611V19.668ZM14.0713 18.9062C14.0525 18.6801 14.0255 18.4618 13.9922 18.251C14.0255 18.4618 14.0525 18.6801 14.0713 18.9062ZM5.14258 14.3896C4.80928 14.5376 4.50732 14.716 4.23535 14.9238C4.09953 15.0276 3.9713 15.1389 3.85059 15.2578C3.72978 15.3768 3.61655 15.5034 3.51074 15.6377C3.45784 15.7048 3.40659 15.7737 3.35742 15.8447C3.30828 15.9157 3.26126 15.9887 3.21582 16.0635L3.08496 16.293C3.54446 15.4272 4.2267 14.7962 5.14258 14.3896ZM17.0889 14.5537L16.9932 14.5576C17.0506 14.5576 17.1066 14.5516 17.1611 14.542C17.1373 14.5462 17.1133 14.5513 17.0889 14.5537ZM17.3086 14.5029C17.2641 14.5185 17.2183 14.5311 17.1709 14.54C17.2183 14.5311 17.2641 14.5185 17.3086 14.5029ZM16.749 14.5254C16.7432 14.5239 16.7372 14.5231 16.7314 14.5215C16.7372 14.5231 16.7432 14.5239 16.749 14.5254ZM17.3477 14.4893C17.3349 14.4944 17.3217 14.4984 17.3086 14.5029C17.3217 14.4984 17.3349 14.4944 17.3477 14.4893ZM17.4287 14.4521C17.4113 14.4611 17.3931 14.4686 17.375 14.4766C17.3931 14.4686 17.4113 14.4612 17.4287 14.4521ZM16.6055 14.4746C16.5943 14.4696 16.5832 14.4644 16.5723 14.459C16.5832 14.4644 16.5943 14.4696 16.6055 14.4746ZM17.498 14.4111C17.4824 14.421 17.4665 14.4305 17.4502 14.4395C17.4665 14.4305 17.4824 14.421 17.498 14.4111ZM16.4639 14.3965C16.4542 14.3899 16.445 14.3829 16.4355 14.376C16.445 14.3828 16.4542 14.39 16.4639 14.3965ZM16.2441 14.1885C16.2983 14.2599 16.3627 14.3228 16.4355 14.376C16.3627 14.3228 16.2983 14.2599 16.2441 14.1885ZM16.9932 7.91797C17.4028 7.91797 17.7256 8.24013 17.7256 8.62695V10.2285C17.7256 10.339 17.8153 10.4287 17.9258 10.4287H19.5674C19.9771 10.4287 20.2998 10.7501 20.2998 11.1377C20.2998 11.5253 19.9772 11.8467 19.5674 11.8467H17.9258C17.8153 11.8467 17.7256 11.9364 17.7256 12.0469V13.6484C17.7256 14.036 17.4029 14.3584 16.9932 14.3584C16.5834 14.3584 16.2607 14.036 16.2607 13.6484V12.0469C16.2607 11.9364 16.171 11.8467 16.0605 11.8467H14.4189C14.0095 11.8464 13.6875 11.5244 13.6875 11.1377C13.6875 10.7511 14.0096 10.429 14.4189 10.4287H16.0605C16.171 10.4287 16.2607 10.339 16.2607 10.2285V8.62695C16.2607 8.24014 16.5835 7.91798 16.9932 7.91797ZM17.6299 14.3105C17.6224 14.3174 17.6151 14.3244 17.6074 14.3311C17.6151 14.3244 17.6224 14.3174 17.6299 14.3105ZM17.7539 14.1729C17.7456 14.1844 17.7374 14.1959 17.7285 14.207C17.7374 14.1959 17.7456 14.1844 17.7539 14.1729ZM16.2441 14.1885C16.2384 14.1809 16.2321 14.1738 16.2266 14.166C16.2321 14.1738 16.2384 14.1809 16.2441 14.1885ZM17.8418 14.0234C17.821 14.0681 17.7971 14.1109 17.7695 14.1514C17.7971 14.1109 17.8211 14.0681 17.8418 14.0234ZM16.1641 14.0635C16.1573 14.0506 16.1507 14.0376 16.1445 14.0244C16.1507 14.0376 16.1573 14.0506 16.1641 14.0635ZM9.59375 13.9258C9.80613 13.9565 10.0109 13.9946 10.208 14.04C10.0109 13.9946 9.80611 13.9565 9.59375 13.9258ZM6.58008 13.9658C6.52204 13.976 6.465 13.9887 6.4082 14C6.465 13.9887 6.52204 13.976 6.58008 13.9658ZM16.0996 13.9092C16.0961 13.8976 16.0939 13.8857 16.0908 13.874C16.0939 13.8857 16.0961 13.8976 16.0996 13.9092ZM17.9209 13.7422C17.9151 13.798 17.9034 13.852 17.8877 13.9043C17.8948 13.8806 17.9011 13.8565 17.9062 13.832L17.9209 13.7422ZM16.0654 13.7422C16.0701 13.7873 16.0796 13.8311 16.0908 13.874C16.0872 13.8601 16.083 13.8462 16.0801 13.832L16.0654 13.7422ZM7.86523 13.8369C7.984 13.8326 8.10475 13.8298 8.22754 13.8291C8.10476 13.8298 7.984 13.8326 7.86523 13.8369ZM9.55176 12.0879H9.55273H9.55176ZM7.76953 12.0205C7.92028 12.0145 8.07327 12.0107 8.22852 12.0098C8.07327 12.0107 7.92028 12.0145 7.76953 12.0205ZM14.1816 12.0156C14.1725 12.0133 14.1633 12.0114 14.1543 12.0088C14.1633 12.0114 14.1725 12.0133 14.1816 12.0156ZM19.833 12.0088C19.8237 12.0115 19.8141 12.0132 19.8047 12.0156C19.8141 12.0132 19.8237 12.0115 19.833 12.0088ZM19.9805 11.9521C19.9744 11.9551 19.968 11.9572 19.9619 11.96C19.968 11.9572 19.9744 11.9551 19.9805 11.9521ZM14.0205 11.959C14.0172 11.9575 14.014 11.9557 14.0107 11.9541C14.014 11.9557 14.0172 11.9575 14.0205 11.959ZM13.7598 11.7803C13.8324 11.8512 13.9174 11.9096 14.0107 11.9541C13.9174 11.9096 13.8324 11.8512 13.7598 11.7803ZM20.1123 11.874C20.1091 11.8763 20.1058 11.8786 20.1025 11.8809C20.1058 11.8786 20.1091 11.8763 20.1123 11.874ZM13.6709 11.6777C13.665 11.6699 13.659 11.6623 13.6533 11.6543C13.659 11.6623 13.665 11.6699 13.6709 11.6777ZM20.3301 11.6592C20.3272 11.6631 20.3242 11.667 20.3213 11.6709C20.3242 11.667 20.3272 11.6631 20.3301 11.6592ZM20.4121 11.5205C20.4087 11.5278 20.405 11.5349 20.4014 11.542C20.405 11.5349 20.4087 11.5278 20.4121 11.5205ZM13.5254 11.3945C13.5232 11.3871 13.5216 11.3795 13.5195 11.3721C13.5216 11.3795 13.5232 11.3871 13.5254 11.3945ZM20.4668 11.3721C20.4648 11.3796 20.4632 11.3871 20.4609 11.3945C20.4632 11.3871 20.4648 11.3796 20.4668 11.3721ZM13.4922 11.2305C13.4972 11.279 13.507 11.3261 13.5195 11.3721C13.5149 11.3552 13.5095 11.3385 13.5059 11.3213L13.4922 11.2305ZM13.4932 11.0322C13.4891 11.0668 13.4873 11.102 13.4873 11.1377C13.4873 11.102 13.4891 11.0668 13.4932 11.0322ZM13.5391 10.8389C13.5447 10.8231 13.5502 10.8073 13.5566 10.792C13.5502 10.8073 13.5447 10.8231 13.5391 10.8389ZM7.94043 10.7744L8.23926 10.7812C8.09807 10.7804 7.95933 10.775 7.82324 10.7676C7.86212 10.7697 7.90113 10.7728 7.94043 10.7744ZM9.04297 10.7383C8.78573 10.7638 8.51789 10.7787 8.23926 10.7803C8.51785 10.7787 8.78577 10.7638 9.04297 10.7383ZM7.35645 10.7285C7.50851 10.7461 7.66409 10.7589 7.82324 10.7676C7.66409 10.7589 7.5085 10.7461 7.35645 10.7285ZM9.12598 10.7295C9.09842 10.7325 9.07077 10.7355 9.04297 10.7383C9.07077 10.7355 9.09842 10.7325 9.12598 10.7295ZM13.5859 10.7314C13.5881 10.7273 13.5896 10.7229 13.5918 10.7188C13.5896 10.7229 13.5881 10.7273 13.5859 10.7314ZM7.25391 10.7148C7.19051 10.7066 7.12755 10.6993 7.06543 10.6895C7.12755 10.6993 7.19051 10.7066 7.25391 10.7148ZM9.4043 10.6943C9.36558 10.7001 9.32636 10.7038 9.28711 10.709C9.32636 10.7038 9.36558 10.7001 9.4043 10.6943ZM13.6143 10.6797C13.6208 10.6688 13.6278 10.6581 13.6348 10.6475C13.6278 10.6581 13.6208 10.6688 13.6143 10.6797ZM6.94043 10.667C6.89921 10.6597 6.85802 10.6535 6.81738 10.6455C6.85802 10.6535 6.89921 10.6597 6.94043 10.667ZM9.67383 10.6475C9.64149 10.6536 9.60891 10.6593 9.57617 10.665C9.60891 10.6593 9.64149 10.6536 9.67383 10.6475ZM9.94434 10.5898C9.89731 10.601 9.84969 10.6109 9.80176 10.6211C9.84969 10.6109 9.89731 10.601 9.94434 10.5898ZM6.68848 10.6172C6.63362 10.6052 6.57914 10.5934 6.52539 10.5801C6.57914 10.5934 6.63361 10.6052 6.68848 10.6172ZM8.22656 0.700195C9.83235 0.710572 11.076 1.17136 11.9248 2C12.7202 2.77662 13.1909 3.89749 13.2695 5.33594L13.2803 5.62793C13.2485 7.27233 12.7899 8.49734 11.958 9.31445C11.1768 10.0817 10.0399 10.5144 8.54199 10.5732L8.23828 10.5801C6.61095 10.5704 5.35412 10.1136 4.50488 9.2832C3.6562 8.45329 3.18852 7.22579 3.18848 5.625C3.18848 4.09515 3.65505 2.8746 4.50391 2.03418C5.3528 1.19388 6.60688 0.710744 8.22656 0.700195ZM6.44629 10.5596C6.39772 10.5468 6.34939 10.5344 6.30176 10.5205C6.34939 10.5344 6.39771 10.5468 6.44629 10.5596ZM10.1943 10.5244C10.1543 10.5358 10.114 10.547 10.0732 10.5576C10.114 10.547 10.1543 10.5358 10.1943 10.5244ZM13.7246 10.5332C13.7294 10.5279 13.7343 10.5227 13.7393 10.5176C13.7343 10.5227 13.7294 10.5279 13.7246 10.5332ZM10.4404 10.4482C10.3961 10.4632 10.3509 10.4763 10.3057 10.4902C10.3509 10.4763 10.3961 10.4632 10.4404 10.4482ZM6.16699 10.4785C6.12231 10.4643 6.078 10.4498 6.03418 10.4346C6.078 10.4498 6.1223 10.4643 6.16699 10.4785ZM13.8457 10.4209C13.8505 10.4172 13.8555 10.4137 13.8604 10.4102C13.8555 10.4137 13.8505 10.4172 13.8457 10.4209ZM10.6719 10.3643C10.6327 10.3796 10.5927 10.3937 10.5527 10.4082C10.5927 10.3937 10.6327 10.3796 10.6719 10.3643ZM5.94336 10.4014C5.89903 10.385 5.85493 10.3689 5.81152 10.3516C5.85493 10.3689 5.89903 10.385 5.94336 10.4014ZM19.8447 10.2695C19.903 10.2872 19.9589 10.31 20.0117 10.3379C19.959 10.31 19.903 10.2872 19.8447 10.2695ZM13.9873 10.332C13.9995 10.3258 14.0119 10.3202 14.0244 10.3145C14.0119 10.3202 13.9995 10.3258 13.9873 10.332ZM10.8867 10.2734C10.8581 10.2863 10.8289 10.2982 10.7998 10.3105C10.8289 10.2982 10.8581 10.2863 10.8867 10.2734ZM14.0684 10.2949C14.0745 10.2925 14.0807 10.2904 14.0869 10.2881C14.0807 10.2904 14.0745 10.2925 14.0684 10.2949ZM5.67578 10.2939C5.64505 10.2806 5.61422 10.2678 5.58398 10.2539C5.61423 10.2678 5.64505 10.2806 5.67578 10.2939ZM14.1533 10.2666C14.1309 10.2731 14.1086 10.28 14.0869 10.2881C14.1049 10.2814 14.1231 10.2751 14.1416 10.2695L14.1533 10.2666ZM11.1055 10.168C11.0794 10.1814 11.0529 10.194 11.0264 10.207C11.0529 10.194 11.0794 10.1814 11.1055 10.168ZM5.47266 10.2002C5.43487 10.1816 5.39733 10.163 5.36035 10.1436C5.39734 10.163 5.43487 10.1816 5.47266 10.2002ZM11.332 10.042C11.2928 10.0653 11.2532 10.0882 11.2129 10.1104C11.2532 10.0882 11.2928 10.0653 11.332 10.042ZM5.26855 10.0938C5.22733 10.0709 5.18666 10.0474 5.14648 10.0234C5.18667 10.0474 5.22733 10.0709 5.26855 10.0938ZM11.5332 9.91504C11.4869 9.94626 11.4396 9.97631 11.3916 10.0059C11.4396 9.97631 11.4869 9.94626 11.5332 9.91504ZM5.05957 9.96973C5.02638 9.94883 4.99338 9.92792 4.96094 9.90625C4.99338 9.92792 5.02638 9.94884 5.05957 9.96973ZM11.7041 9.79297C11.671 9.81785 11.6375 9.84226 11.6035 9.86621C11.6375 9.84225 11.671 9.81785 11.7041 9.79297ZM4.84082 9.82324C4.81259 9.80294 4.78446 9.78264 4.75684 9.76172C4.78446 9.78264 4.81259 9.80294 4.84082 9.82324ZM11.8867 9.64746C11.8567 9.6729 11.8257 9.69708 11.7949 9.72168C11.8257 9.69708 11.8567 9.6729 11.8867 9.64746ZM4.6582 9.68457C4.63585 9.66655 4.61372 9.64833 4.5918 9.62988C4.61373 9.64833 4.63585 9.66655 4.6582 9.68457ZM12.0605 9.49121C12.0302 9.5202 11.999 9.54814 11.9678 9.57617C11.999 9.54814 12.0302 9.52021 12.0605 9.49121ZM4.47852 9.53027C4.45955 9.51308 4.44049 9.49604 4.42188 9.47852C4.4405 9.49604 4.45955 9.51309 4.47852 9.53027ZM12.2119 9.33691C12.1842 9.36654 12.1565 9.39608 12.1279 9.4248C12.1565 9.39608 12.1842 9.36654 12.2119 9.33691ZM4.31738 9.37598C4.29602 9.35435 4.27478 9.33265 4.25391 9.31055C4.27478 9.33265 4.29601 9.35435 4.31738 9.37598ZM12.3545 9.17578C12.3383 9.19511 12.3222 9.21441 12.3057 9.2334C12.3222 9.21441 12.3383 9.19511 12.3545 9.17578ZM4.16406 9.21289C4.13853 9.18402 4.1136 9.15463 4.08887 9.125C4.11361 9.15463 4.13853 9.18402 4.16406 9.21289ZM8.22559 2.11719C7.05861 2.1242 6.16533 2.38947 5.56055 2.98438C5.03123 3.50511 4.75154 4.2507 4.67383 5.21094L4.65234 5.63477V5.64355C4.67662 6.82443 4.94816 7.71358 5.55176 8.30566C6.1553 8.89754 7.0526 9.15416 8.23828 9.16113H8.24023C9.42334 9.15418 10.3187 8.89652 10.9209 8.30176C11.523 7.70695 11.793 6.8136 11.8154 5.62695V5.61914C11.7953 4.47563 11.5084 3.59256 10.8984 2.99609C10.3651 2.47471 9.61181 2.19869 8.65234 2.13281L8.22852 2.11719H8.22559ZM12.5293 8.95312C12.4984 8.99583 12.4669 9.03787 12.4346 9.0791C12.4669 9.03786 12.4984 8.99583 12.5293 8.95312ZM4.02051 9.04102C3.99719 9.01153 3.97471 8.98137 3.95215 8.95117C3.97471 8.98137 3.99719 9.01153 4.02051 9.04102ZM8.65918 8.94727V8.94629V8.94727ZM7.08008 8.84961C7.30725 8.89728 7.55299 8.93039 7.81836 8.94727C7.55298 8.93039 7.30726 8.89729 7.08008 8.84961ZM9.4082 8.84766C9.2826 8.87459 9.15095 8.89483 9.01367 8.91211C9.02504 8.91068 9.03656 8.91068 9.04785 8.90918L9.4082 8.84766ZM12.6514 8.77441C12.6239 8.81691 12.5952 8.85825 12.5664 8.89941C12.5952 8.85824 12.6239 8.81691 12.6514 8.77441ZM3.87305 8.84277C3.85417 8.81571 3.83568 8.78834 3.81738 8.76074C3.83568 8.78834 3.85417 8.81571 3.87305 8.84277ZM6.83691 8.79004C6.81432 8.78376 6.79171 8.77813 6.76953 8.77148C6.79171 8.77812 6.81432 8.78376 6.83691 8.79004ZM6.52637 8.68848C6.5079 8.6813 6.48982 8.67348 6.47168 8.66602C6.48982 8.67348 6.5079 8.6813 6.52637 8.68848ZM12.7812 8.55957C12.7567 8.60309 12.7319 8.64621 12.7061 8.68848C12.7319 8.64621 12.7567 8.60309 12.7812 8.55957ZM3.74609 8.64941C3.7238 8.61338 3.70201 8.57693 3.68066 8.54004C3.70201 8.57693 3.72379 8.61338 3.74609 8.64941ZM17.8857 8.36621C17.9029 8.42219 17.916 8.4801 17.9219 8.54004L17.9258 8.62695C17.9258 8.53634 17.911 8.44882 17.8857 8.36621ZM6.37598 8.625C6.36974 8.62216 6.36362 8.61909 6.35742 8.61621C6.36362 8.61909 6.36974 8.62216 6.37598 8.625ZM10.3154 8.51172V8.5127V8.51172ZM6.25684 8.56641C6.23616 8.55573 6.2155 8.54531 6.19531 8.53418C6.2155 8.54531 6.23616 8.55573 6.25684 8.56641ZM16.0791 8.44336H16.0801H16.0791ZM6.1377 8.50195C6.11184 8.48679 6.08655 8.47102 6.06152 8.45508C6.08656 8.47102 6.11183 8.4868 6.1377 8.50195ZM12.8994 8.33594C12.8744 8.3868 12.8489 8.43702 12.8223 8.48633C12.8489 8.43702 12.8744 8.3868 12.8994 8.33594ZM3.62109 8.43457C3.60573 8.40622 3.59099 8.37746 3.57617 8.34863C3.591 8.37746 3.60572 8.40622 3.62109 8.43457ZM6.01172 8.42285C5.99556 8.41198 5.97966 8.40086 5.96387 8.38965C5.97966 8.40086 5.99556 8.41199 6.01172 8.42285ZM5.89844 8.3418C5.87815 8.32629 5.85853 8.31006 5.83887 8.29395C5.85853 8.31006 5.87815 8.32629 5.89844 8.3418ZM17.8555 8.28125C17.862 8.29661 17.8674 8.31236 17.873 8.32812C17.8674 8.31236 17.8619 8.29661 17.8555 8.28125ZM5.68555 8.15723C5.73419 8.20531 5.78571 8.25037 5.83887 8.29395C5.78785 8.25213 5.73826 8.20905 5.69141 8.16309L5.68555 8.15723ZM12.999 8.11816C12.974 8.1763 12.9488 8.23377 12.9219 8.29004C12.9488 8.23377 12.974 8.1763 12.999 8.11816ZM3.51074 8.21777C3.4996 8.19426 3.48931 8.1703 3.47852 8.14648C3.48931 8.1703 3.4996 8.19426 3.51074 8.21777ZM17.7783 8.13867C17.7878 8.15311 17.797 8.16764 17.8057 8.18262C17.797 8.16763 17.7878 8.15312 17.7783 8.13867ZM3.40918 7.9873C3.43125 8.04119 3.45475 8.09407 3.47852 8.14648C3.46335 8.11304 3.44709 8.07994 3.43262 8.0459L3.40918 7.9873ZM16.2197 8.11816V8.11914V8.11816ZM13.1084 7.84473C13.0826 7.91609 13.0548 7.98587 13.0264 8.05469C13.0548 7.98587 13.0826 7.91609 13.1084 7.84473ZM17.6709 8.00391C17.6772 8.01037 17.6834 8.0168 17.6895 8.02344C17.6834 8.0168 17.6771 8.01037 17.6709 8.00391ZM5.42285 7.84473C5.42058 7.84147 5.41827 7.83823 5.41602 7.83496C5.44261 7.87351 5.47045 7.91081 5.49902 7.94727L5.42285 7.84473ZM17.5459 7.89648C17.5544 7.90262 17.563 7.90863 17.5713 7.91504C17.563 7.90862 17.5544 7.90263 17.5459 7.89648ZM13.1748 7.64551C13.1557 7.70588 13.1362 7.76555 13.1152 7.82422C13.1362 7.76555 13.1557 7.70588 13.1748 7.64551ZM17.3916 7.80566C17.4017 7.81031 17.412 7.81435 17.4219 7.81934C17.412 7.81434 17.4017 7.81032 17.3916 7.80566ZM17.3164 7.77441C17.3258 7.7778 17.3355 7.78051 17.3447 7.78418C17.3355 7.7805 17.3258 7.77781 17.3164 7.77441ZM5.38281 7.7832C5.36783 7.76024 5.35221 7.73755 5.33789 7.71387C5.35221 7.73755 5.36783 7.76024 5.38281 7.7832ZM3.32812 7.77637C3.31415 7.73719 3.3022 7.69712 3.28906 7.65723C3.3022 7.69712 3.31414 7.73719 3.32812 7.77637ZM17.2344 7.74902C17.2435 7.75139 17.2527 7.75323 17.2617 7.75586C17.2527 7.75323 17.2435 7.7514 17.2344 7.74902ZM13.2393 7.42578C13.2258 7.47506 13.2128 7.52405 13.1982 7.57227C13.2128 7.52405 13.2258 7.47506 13.2393 7.42578ZM3.25 7.53711C3.23889 7.50038 3.22917 7.46309 3.21875 7.42578C3.22917 7.46309 3.23888 7.50038 3.25 7.53711ZM5.23145 7.51758C5.2211 7.49653 5.21011 7.47564 5.2002 7.4541C5.21011 7.47564 5.22109 7.49653 5.23145 7.51758ZM3.17871 7.28125C3.09582 6.94996 3.03948 6.59689 3.01074 6.22266L2.99414 5.92773C3.01229 6.41252 3.07439 6.86421 3.17871 7.28125ZM5.16504 7.37109C5.15955 7.3581 5.15378 7.34519 5.14844 7.33203C5.15378 7.34519 5.15955 7.3581 5.16504 7.37109ZM5.05859 7.07812C5.05345 7.06159 5.04792 7.04509 5.04297 7.02832C5.04792 7.04509 5.05345 7.06159 5.05859 7.07812ZM13.3467 6.96289C13.3402 6.99699 13.3332 7.0308 13.3262 7.06445C13.3332 7.0308 13.3402 6.99699 13.3467 6.96289ZM13.377 6.79102C13.3774 6.78838 13.3785 6.78584 13.3789 6.7832C13.3785 6.78584 13.3774 6.78838 13.377 6.79102ZM13.4482 6.22754C13.4315 6.41862 13.4082 6.60381 13.3789 6.7832C13.4078 6.60657 13.4306 6.42429 13.4473 6.23633L13.4482 6.22754ZM4.97363 6.75488C4.96478 6.71424 4.95806 6.67272 4.9502 6.63086C4.95807 6.67272 4.96478 6.71424 4.97363 6.75488ZM4.91113 6.40918C4.89587 6.30067 4.88442 6.18833 4.875 6.07227C4.88442 6.18833 4.89586 6.30066 4.91113 6.40918ZM4.87305 5.22559C4.86226 5.35862 4.85545 5.49684 4.85254 5.63965C4.85541 5.7792 4.86209 5.91392 4.87207 6.04395C4.8621 5.91393 4.85541 5.77919 4.85254 5.63965C4.85545 5.49707 4.86229 5.35939 4.87305 5.22656V5.22559ZM11.4824 4.49121C11.5367 4.71576 11.5745 4.95812 11.5957 5.21875C11.5745 4.95813 11.5367 4.71576 11.4824 4.49121ZM3.07715 4.5039C3.07715 4.5039 3.07715 4.50391 3.07715 4.50391C3.06242 4.59249 3.05016 4.6824 3.03906 4.77344C3.05016 4.68239 3.06226 4.59247 3.07699 4.50389C3.07701 4.50379 3.07715 4.5038 3.07715 4.5039V4.5039ZM12.6592 2.58691C13.004 3.12257 13.244 3.75485 13.3721 4.47656C13.34 4.29611 13.3008 4.12132 13.2549 3.95215C13.1631 3.61401 13.0444 3.29851 12.8984 3.00684C12.8618 2.93365 12.8232 2.86217 12.7832 2.79199L12.6592 2.58691ZM3.53378 3.04867C3.53397 3.04827 3.53451 3.04818 3.53482 3.0485V3.0485C3.53502 3.04869 3.53507 3.049 3.53495 3.04925C3.46322 3.19479 3.39774 3.34554 3.33984 3.50195C3.28193 3.65842 3.23132 3.82033 3.1875 3.9873C3.27512 3.6534 3.3903 3.3398 3.53378 3.04867ZM5.92188 2.93652V2.9375V2.93652ZM11.1084 1.15723C11.251 1.23429 11.3881 1.31716 11.5186 1.40723C11.3881 1.31715 11.251 1.23429 11.1084 1.15723ZM2.31836 19.8672C2.31286 19.8833 2.30525 19.8984 2.29883 19.9141C2.30524 19.8984 2.31286 19.8833 2.31836 19.8672ZM15.9619 19.6992C15.9597 19.717 15.9573 19.7345 15.9541 19.752C15.9573 19.7345 15.9598 19.717 15.9619 19.6992ZM0.50293 19.668V19.6611C0.504643 19.6829 0.508452 19.7043 0.511719 19.7256C0.508799 19.7065 0.504605 19.6874 0.50293 19.668ZM17.8818 13.9238C17.8736 13.9491 17.8639 13.9737 17.8535 13.998C17.8639 13.9738 17.8736 13.9491 17.8818 13.9238ZM13.4932 11.0322C13.496 11.0085 13.4993 10.985 13.5039 10.9619C13.4993 10.985 13.496 11.0085 13.4932 11.0322ZM13.5264 10.876C13.5234 10.8856 13.5212 10.8955 13.5186 10.9053C13.5212 10.8955 13.5234 10.8856 13.5264 10.876ZM17.8164 8.20215C17.8241 8.21635 17.8319 8.23049 17.8389 8.24512C17.8319 8.23048 17.8241 8.21635 17.8164 8.20215ZM5.53223 7.9873C5.52124 7.97393 5.50974 7.96094 5.49902 7.94727C5.50974 7.96094 5.52123 7.97393 5.53223 7.9873ZM5.33789 7.71387C5.32228 7.68806 5.3078 7.66143 5.29297 7.63477C5.30779 7.66143 5.32229 7.68806 5.33789 7.71387ZM3.21875 7.42578C3.20539 7.37792 3.19092 7.33006 3.17871 7.28125C3.19092 7.33006 3.20539 7.37792 3.21875 7.42578ZM13.3262 7.06445C13.3127 7.12948 13.2975 7.19347 13.2822 7.25684C13.2975 7.19347 13.3127 7.12948 13.3262 7.06445Z" fill="white" fill-opacity="0.5"/>
</svg>
