<svg width="21" height="22" viewBox="0 0 21 22" fill="none" xmlns="http://www.w3.org/2000/svg">
<path d="M8.53041 13.0087C3.67689 13.0387 1.06612 15.6542 0.977757 20.5735C0.973202 20.8181 1.06794 21.0526 1.2392 21.2272C1.41046 21.4008 1.64366 21.499 1.8887 21.499H15.184C15.429 21.499 15.6622 21.4017 15.8335 21.2272C16.0047 21.0536 16.0995 20.8181 16.0949 20.5735C16.0111 15.726 13.3293 13.0396 8.53041 13.0087Z" fill="white"/>
<path d="M19.6112 10.7731H18.4616V9.62577C18.4616 8.8721 17.8494 8.26207 17.0951 8.26207C16.3409 8.26207 15.7287 8.8721 15.7287 9.62577V10.7731H14.58C13.8258 10.7731 13.2136 11.3831 13.2136 12.1368C13.2136 12.8905 13.8258 13.5005 14.58 13.5005H15.7287V14.6478C15.7287 15.4006 16.3409 16.0115 17.0951 16.0115C17.8494 16.0115 18.4616 15.4006 18.4616 14.6478V13.5005H19.6112C20.3654 13.5005 20.9776 12.8895 20.9776 12.1368C20.9776 11.384 20.3654 10.7731 19.6112 10.7731Z" fill="white"/>
<path d="M8.54136 11.7795C11.8308 11.7604 13.6017 9.98758 13.6627 6.62379C13.6062 3.38729 11.7397 1.51993 8.53043 1.49902C5.28655 1.51902 3.40909 3.4282 3.40909 6.65561C3.40909 9.88303 5.28746 11.7604 8.54136 11.7795Z" fill="white"/>
</svg>
