<svg width="12" height="12" viewBox="0 0 12 12" fill="none" xmlns="http://www.w3.org/2000/svg">
<g opacity="0.4">
<path fill-rule="evenodd" clip-rule="evenodd" d="M6.00098 7.85645C6.18806 7.85645 6.36764 7.9303 6.5 8.0625C6.63213 8.19475 6.70691 8.37459 6.70703 8.56152C6.70693 8.74849 6.63216 8.92828 6.5 9.06055C6.36764 9.1928 6.1881 9.26758 6.00098 9.26758C5.81385 9.26758 5.63432 9.1928 5.50195 9.06055C5.36979 8.92828 5.29502 8.74849 5.29492 8.56152C5.29504 8.37458 5.36981 8.19475 5.50195 8.0625C5.63431 7.9303 5.81389 7.85645 6.00098 7.85645ZM6.36328 8.92383L6.41211 8.86621C6.41508 8.86222 6.41708 8.85758 6.41992 8.85352C6.40277 8.87813 6.38478 8.90232 6.36328 8.92383ZM5.51855 8.73438C5.51999 8.73836 5.5219 8.74215 5.52344 8.74609C5.5129 8.71883 5.5038 8.6909 5.49805 8.66211L5.51855 8.73438ZM6.51367 8.56152C6.51367 8.6254 6.50017 8.68765 6.47754 8.74609C6.48822 8.71874 6.49813 8.691 6.50391 8.66211L6.51367 8.56152ZM6.36328 8.19922L6.30566 8.14941C6.30036 8.14549 6.2945 8.14238 6.28906 8.13867C6.31534 8.15657 6.34048 8.17642 6.36328 8.19922Z" fill="white"/>
<path fill-rule="evenodd" clip-rule="evenodd" d="M6.08008 2.73242C6.45207 2.73255 6.81578 2.8461 7.12109 3.05859C7.42639 3.27118 7.65887 3.57304 7.78809 3.92188C7.91726 4.27084 7.93706 4.6515 7.84375 5.01172C7.75043 5.37171 7.54875 5.69424 7.2666 5.93652L6.74023 6.38867C6.67644 6.44349 6.62501 6.51148 6.58984 6.58789C6.57227 6.62609 6.55878 6.6662 6.5498 6.70703L6.53613 6.83203V7.19531C6.53612 7.33718 6.47921 7.47291 6.37891 7.57324C6.27855 7.67357 6.14289 7.73047 6.00098 7.73047C5.85906 7.73047 5.7234 7.67357 5.62305 7.57324C5.52274 7.47291 5.46584 7.33718 5.46582 7.19531V6.83203C5.46582 6.34929 5.67732 5.89016 6.04297 5.57617L6.56934 5.12598L6.65039 5.04492C6.7247 4.95844 6.77862 4.85544 6.80762 4.74414C6.84622 4.59558 6.8383 4.43794 6.78516 4.29395C6.73187 4.15 6.63571 4.02525 6.50977 3.9375C6.41534 3.87174 6.30707 3.82894 6.19434 3.81152L6.08008 3.80273H6.00098C5.78062 3.80273 5.56894 3.89014 5.41309 4.0459C5.27698 4.18205 5.19289 4.36091 5.17383 4.55078L5.16992 4.63379V4.70703C5.16985 4.84863 5.11368 4.98472 5.01367 5.08496C4.91342 5.18521 4.77654 5.24208 4.63477 5.24219C4.49296 5.2421 4.35614 5.18523 4.25586 5.08496C4.1558 4.98472 4.09969 4.84867 4.09961 4.70703V4.63379C4.0997 4.12986 4.3 3.64648 4.65625 3.29004C5.01284 2.93348 5.49669 2.73242 6.00098 2.73242H6.08008ZM6.24219 7.43652C6.2241 7.45461 6.20392 7.46997 6.18262 7.4834C6.18513 7.48182 6.18894 7.48114 6.19141 7.47949L6.24219 7.43652ZM6.36035 6.66504C6.35829 6.67439 6.35718 6.68394 6.35547 6.69336C6.36219 6.65664 6.37096 6.62032 6.38281 6.58496L6.36035 6.66504ZM6.16895 5.72266L6.05371 5.83301C6.01946 5.86956 5.98713 5.90765 5.95703 5.94727C6.01886 5.86601 6.09014 5.79032 6.16895 5.72266ZM6.73145 3.87012C6.83568 3.9692 6.91654 4.09157 6.9668 4.22754C6.89981 4.04645 6.77855 3.88968 6.62012 3.7793L6.73145 3.87012ZM4.5918 3.66895C4.58965 3.67207 4.58806 3.67557 4.58594 3.67871C4.61531 3.6352 4.64623 3.5926 4.67969 3.55176L4.5918 3.66895ZM5.68652 2.95508C5.68295 2.95575 5.67935 2.95634 5.67578 2.95703C5.72732 2.94704 5.7795 2.93979 5.83203 2.93457L5.68652 2.95508Z" fill="white"/>
<path fill-rule="evenodd" clip-rule="evenodd" d="M6.00098 0C7.59227 2.182e-06 9.11791 0.632735 10.2432 1.75781C11.3684 2.883 12.001 4.40875 12.001 6C12.001 7.59125 11.3684 9.117 10.2432 10.2422C9.11791 11.3673 7.59227 12 6.00098 12C4.40968 12 2.88405 11.3673 1.75879 10.2422C0.633516 9.117 3.2087e-09 7.59125 0 6C7.06534e-08 4.40875 0.633516 2.883 1.75879 1.75781C2.88405 0.632738 4.40968 7.06437e-08 6.00098 0ZM6.23926 11.1172L6.00098 11.123C6.13875 11.123 6.27578 11.1155 6.41211 11.1045C6.35459 11.1091 6.29706 11.1145 6.23926 11.1172ZM6.00098 1.07031C4.69352 1.07031 3.43919 1.58928 2.51465 2.51367C1.59009 3.43816 1.07129 4.69258 1.07129 6C1.07129 7.30742 1.59009 8.56184 2.51465 9.48633C3.43919 10.4107 4.69352 10.9297 6.00098 10.9297C7.30844 10.9297 8.56276 10.4107 9.4873 9.48633C10.4119 8.56184 10.9307 7.30742 10.9307 6C10.9307 4.69258 10.4119 3.43816 9.4873 2.51367C8.56276 1.58927 7.30844 1.07031 6.00098 1.07031ZM2.37793 9.62305C2.40679 9.6519 2.43733 9.67894 2.4668 9.70703L2.37793 9.62305ZM9.62402 9.62207L9.53516 9.70703C9.56462 9.67894 9.59517 9.65092 9.62402 9.62207ZM0.876953 6C0.876953 6.04238 0.878836 6.08469 0.879883 6.12695L0.876953 6ZM11.124 6L11.1211 6.12695C11.1221 6.08468 11.124 6.04239 11.124 6C11.124 5.91512 11.1223 5.83047 11.1182 5.74609L11.124 6ZM10.6328 3.81152C10.704 3.96203 10.7681 4.11575 10.8242 4.27246L10.7344 4.03906C10.6707 3.8853 10.599 3.73489 10.5205 3.58789L10.6328 3.81152ZM9.62402 2.37793C9.92419 2.67813 10.1831 3.01188 10.3975 3.37012L10.2637 3.15723C10.078 2.87884 9.86415 2.61803 9.62402 2.37793ZM10.4922 2.32031C10.6091 2.46297 10.719 2.61047 10.8213 2.7627C10.6662 2.53177 10.4942 2.31075 10.3057 2.10254L10.4922 2.32031ZM2.37793 2.37695C2.36055 2.39433 2.34425 2.41306 2.32715 2.43066L2.37793 2.37695C2.43805 2.31684 2.49978 2.25894 2.5625 2.20215L2.37793 2.37695ZM3.58789 1.48047C3.2937 1.63751 3.01429 1.82378 2.75391 2.03711L2.95312 1.88281C3.22284 1.68314 3.51024 1.5106 3.81152 1.36816L3.58789 1.48047ZM10.1064 1.89453L9.91113 1.70801C9.9096 1.70661 9.90779 1.7055 9.90625 1.7041C9.97426 1.76593 10.0412 1.82925 10.1064 1.89453ZM5.24414 0.932617C5.16129 0.944989 5.079 0.960191 4.99707 0.976562L5.24414 0.932617C5.32708 0.920226 5.41041 0.910667 5.49414 0.902344L5.24414 0.932617ZM1.69629 2.10254L1.52051 2.30566C1.51727 2.30959 1.51397 2.31345 1.51074 2.31738C1.57064 2.24436 1.63264 2.17282 1.69629 2.10254Z" fill="white"/>
</g>
</svg>
