<svg width="15" height="15" viewBox="0 0 15 15" fill="none" xmlns="http://www.w3.org/2000/svg">
<path d="M7.5 0.891602C11.1499 0.891602 14.1084 3.85034 14.1084 7.5C14.1084 11.1499 11.1499 14.1084 7.5 14.1084C3.85034 14.1084 0.891602 11.1499 0.891602 7.5C0.891602 3.85034 3.85034 0.891602 7.5 0.891602ZM7.5 1.9209C4.42378 1.9209 1.9209 4.42378 1.9209 7.5C1.92091 10.5765 4.42411 13.0928 7.5 13.0928C10.5759 13.0928 13.0801 10.5765 13.0801 7.5C13.0801 4.4238 10.5762 1.9209 7.5 1.9209ZM3.67773 11.7148C3.76457 11.7941 3.85469 11.8696 3.94629 11.9434C3.8502 11.866 3.75588 11.7865 3.66504 11.7031L3.67773 11.7148ZM10.0986 4.97852C10.2984 4.84704 10.5702 4.86937 10.7461 5.04492L10.8115 5.12598C10.9243 5.29721 10.9244 5.52124 10.8115 5.69238L10.7461 5.77246L6.69922 9.84473L6.65039 9.90332C6.47436 10.0789 6.20266 10.1016 6.00293 9.96973L5.92285 9.90332L3.91113 7.89258C3.71088 7.69183 3.71105 7.36687 3.91113 7.16602L3.99316 7.09863C4.19292 6.96732 4.464 6.99037 4.63965 7.16602L6.28027 8.80566L10.0166 5.0459L10.0176 5.04492L10.0986 4.97852ZM13.1328 8.28223C13.1228 8.35193 13.1118 8.42128 13.0996 8.49023C13.1234 8.35529 13.1441 8.21902 13.1582 8.08105L13.1328 8.28223ZM13.1807 7.2666L13.1797 7.20801C13.1776 7.16659 13.1739 7.12516 13.1709 7.08398C13.1753 7.14452 13.1778 7.20559 13.1807 7.2666ZM13.9248 6.50977L13.876 6.22949C13.8739 6.21884 13.8713 6.2079 13.8691 6.19727C13.8901 6.30046 13.9088 6.40486 13.9248 6.50977ZM2.94336 4.09863C2.9273 4.12009 2.91225 4.14237 2.89648 4.16406C2.96585 4.0686 3.03728 3.97466 3.1123 3.88379L2.94336 4.09863Z" fill="#7BFF93"/>
</svg>
