<svg width="16" height="15" viewBox="0 0 16 15" fill="none" xmlns="http://www.w3.org/2000/svg">
<path d="M11.7773 0.5C12.8533 0.5 13.7786 0.804472 14.4287 1.38867C15.07 1.96501 15.5 2.86362 15.5 4.1748C15.5 5.18948 15.057 6.28742 14.332 7.39258C13.6111 8.49148 12.6408 9.55337 11.6562 10.4863C10.6736 11.4174 9.68833 12.2086 8.94824 12.7676C8.57875 13.0467 8.27107 13.2668 8.05664 13.417C8.03705 13.4307 8.01801 13.4435 8 13.4561C7.98199 13.4435 7.96295 13.4307 7.94336 13.417C7.72893 13.2668 7.42125 13.0467 7.05176 12.7676C6.31167 12.2086 5.32638 11.4174 4.34375 10.4863C3.35917 9.55337 2.38891 8.49148 1.66797 7.39258C0.942961 6.28742 0.5 5.18948 0.5 4.1748C0.500057 2.15087 2.16195 0.5 4.22266 0.5C5.68224 0.500164 6.94325 1.32952 7.55371 2.53418C7.6389 2.70219 7.81162 2.80762 8 2.80762C8.18838 2.80762 8.3611 2.70219 8.44629 2.53418C9.05675 1.32952 10.3178 0.500164 11.7773 0.5Z" stroke="white" stroke-linecap="round" stroke-linejoin="round"/>
</svg>
