<svg width="13" height="13" viewBox="0 0 13 13" fill="none" xmlns="http://www.w3.org/2000/svg">
<path d="M6.42807 13C4.85026 13 3.46577 12.5212 2.27461 11.5635C1.08345 10.6058 0.331511 9.37842 0.0187965 7.88125C-0.0151585 7.76154 -0.00310985 7.65077 0.0549422 7.54894C0.112994 7.4471 0.20418 7.38806 0.328499 7.37181C0.445151 7.35556 0.547837 7.38075 0.636558 7.44737C0.724731 7.514 0.787438 7.60879 0.824679 7.73175C1.12151 9.02308 1.7913 10.0885 2.83405 10.9281C3.87679 11.7677 5.0748 12.1875 6.42807 12.1875C8.02998 12.1875 9.38872 11.6358 10.5043 10.5324C11.6199 9.42906 12.178 8.08492 12.1785 6.5C12.1791 4.91508 11.621 3.57094 10.5043 2.46756C9.38763 1.36419 8.02888 0.8125 6.42807 0.8125C5.57755 0.8125 4.77852 0.990167 4.03096 1.3455C3.2834 1.70029 2.62347 2.18915 2.05117 2.81206H3.67854C3.79519 2.81206 3.89295 2.85106 3.97181 2.92906C4.05068 3.00706 4.08983 3.10375 4.08928 3.21912C4.08874 3.3345 4.04958 3.43092 3.97181 3.50837C3.89404 3.58583 3.79629 3.62456 3.67854 3.62456H1.3414C1.15355 3.62456 0.996097 3.56173 0.86904 3.43606C0.741983 3.3104 0.678454 3.15467 0.678454 2.96887V0.6565C0.678454 0.541125 0.717885 0.444708 0.796749 0.36725C0.875612 0.289792 0.973095 0.250792 1.0892 0.25025C1.2053 0.249708 1.30279 0.288708 1.38165 0.36725C1.46051 0.445792 1.49994 0.542208 1.49994 0.6565V2.1905C2.13523 1.50096 2.8795 0.963625 3.73276 0.5785C4.58601 0.193375 5.48445 0.000541667 6.42807 0C7.33993 0 8.194 0.169542 8.9903 0.508625C9.7866 0.847708 10.4824 1.31192 11.0777 1.90125C11.673 2.49058 12.1424 3.1785 12.4857 3.965C12.8291 4.7515 13.0005 5.59623 13 6.49919C12.9995 7.40215 12.828 8.24715 12.4857 9.03419C12.1435 9.82123 11.6741 10.5097 11.0777 11.0996C10.4813 11.6894 9.7855 12.1534 8.9903 12.4914C8.1951 12.8294 7.34157 12.9989 6.42807 13ZM6.88564 6.331L9.35011 8.7685C9.42679 8.84433 9.46786 8.9375 9.47334 9.048C9.47881 9.15904 9.43774 9.25762 9.35011 9.34375C9.26249 9.43042 9.16583 9.47375 9.06013 9.47375C8.95333 9.47375 8.8564 9.43042 8.76932 9.34375L6.26377 6.86562C6.19203 6.79521 6.14082 6.721 6.11015 6.643C6.07948 6.565 6.06415 6.48456 6.06415 6.40169V2.84375C6.06415 2.72837 6.10358 2.63196 6.18244 2.5545C6.26131 2.4765 6.35907 2.4375 6.47572 2.4375C6.59237 2.4375 6.68985 2.4765 6.76817 2.5545C6.84648 2.6325 6.88564 2.72892 6.88564 2.84375V6.331Z" fill="white"/>
</svg>
