<svg width="21" height="21" viewBox="0 0 21 21" fill="none" xmlns="http://www.w3.org/2000/svg">
<path d="M16.3333 20.5H4.66667C2.36917 20.5 0.5 18.6312 0.5 16.3341V8.60556C0.5 7.21832 1.18667 5.9269 2.33667 5.15204L8.16917 1.21612C9.585 0.261295 11.415 0.261295 12.8308 1.21612L18.6642 5.15204C19.8133 5.9269 20.5 7.21749 20.5 8.60556V16.3341C20.5 18.6312 18.6308 20.5 16.3333 20.5ZM10.5 2.1676C10.0133 2.1676 9.52667 2.31091 9.10167 2.59836L3.26833 6.53345C2.57833 6.99836 2.16667 7.77239 2.16667 8.60473V16.3333C2.16667 17.7114 3.28833 18.8328 4.66667 18.8328H16.3333C17.7117 18.8328 18.8333 17.7114 18.8333 16.3333V8.60556C18.8333 7.77322 18.4217 6.99836 17.7325 6.53429L11.8983 2.59836C11.4733 2.31091 10.9867 2.1676 10.5 2.1676Z" fill="white" fill-opacity="0.5"/>
</svg>
