<svg width="21" height="22" viewBox="0 0 21 22" fill="none" xmlns="http://www.w3.org/2000/svg">
<path d="M10.4971 0.5C11.946 0.500062 13.3122 0.775927 14.5928 1.32812L15.0635 1.54395C16.1431 2.06781 17.0978 2.74287 17.9258 3.56934C18.8723 4.51432 19.6216 5.6272 20.1719 6.90234C20.724 8.18212 21 9.54822 21 10.9971C20.9999 12.446 20.7243 13.8122 20.1729 15.0928C19.6234 16.3687 18.8753 17.482 17.9287 18.4277C16.9826 19.3729 15.8718 20.121 14.5996 20.6719C13.4815 21.1559 12.2951 21.4265 11.0439 21.4863L10.5029 21.5C9.2342 21.4999 8.02953 21.2885 6.89062 20.8662L6.40723 20.6729C5.13234 20.1227 4.02057 19.3742 3.07422 18.4287C2.12786 17.4831 1.37836 16.3712 0.828125 15.0977C0.275994 13.8193 0 12.4532 0 11.0029C6.13251e-05 9.55254 0.275867 8.18635 0.828125 6.90723L1.04395 6.43652C1.56784 5.35665 2.24327 4.40232 3.06934 3.57422C4.01361 2.62762 5.12447 1.87839 6.40039 1.32812C7.68111 0.775834 9.04794 0.5 10.4971 0.5ZM6.04883 20.2275C6.19956 20.3008 6.353 20.3713 6.50879 20.4385C6.19702 20.3039 5.89502 20.1566 5.60352 19.998L6.04883 20.2275ZM10.5 2.15039C8.02464 2.15039 5.93677 3.00659 4.22168 4.72168C2.50659 6.43676 1.65039 8.52464 1.65039 11C1.65039 13.4754 2.50659 15.5632 4.22168 17.2783C5.93676 18.9934 8.02464 19.8496 10.5 19.8496C12.9754 19.8496 15.0632 18.9934 16.7783 17.2783C18.4934 15.5632 19.3496 13.4754 19.3496 11C19.3496 8.52464 18.4934 6.43676 16.7783 4.72168C15.0632 3.00659 12.9754 2.15039 10.5 2.15039ZM16.1855 18.1523C16.2161 18.1276 16.2479 18.1043 16.2783 18.0791L16.2998 18.0605C16.2622 18.0919 16.2235 18.1217 16.1855 18.1523ZM10.5 9.60645C10.7251 9.6075 10.9255 9.68638 11.085 9.84473C11.2452 10.0039 11.3252 10.2056 11.3252 10.4316V15.5527C11.3251 15.7775 11.2471 15.9793 11.0889 16.1387C10.9693 16.2591 10.8249 16.3335 10.665 16.3633L10.5 16.3779L10.3369 16.3613C10.1779 16.3314 10.0347 16.2583 9.91504 16.1396C9.75492 15.9806 9.67494 15.7786 9.6748 15.5527V10.4316C9.6748 10.2072 9.75383 10.0064 9.91113 9.84668C10.0705 9.68512 10.273 9.60539 10.5 9.60645ZM10.7236 16.0801C10.6898 16.0937 10.6544 16.1045 10.6172 16.1113C10.6914 16.0977 10.7595 16.0711 10.8203 16.0303L10.7236 16.0801ZM10.0947 15.958C10.1492 16.012 10.2106 16.0529 10.2783 16.0801L10.1816 16.0283C10.1513 16.0081 10.1218 15.9849 10.0947 15.958ZM1.43555 11.9355C1.44616 12.0531 1.4609 12.1694 1.47559 12.2852C1.45965 12.1595 1.44473 12.033 1.43359 11.9053L1.43555 11.9355ZM19.5361 12.1719C19.5452 12.0934 19.5573 12.0149 19.5645 11.9355L19.5664 11.9053C19.5586 11.9948 19.5463 12.0834 19.5361 12.1719ZM19.5107 9.61133C19.5521 9.91091 19.581 10.2166 19.5947 10.5283L19.5645 10.0645C19.5369 9.75889 19.4946 9.45943 19.4395 9.16602L19.5107 9.61133ZM10.498 6.58496C10.7618 6.58395 10.9964 6.6762 11.1807 6.8623C11.3631 7.04703 11.4539 7.27958 11.4551 7.54102C11.456 7.80382 11.3653 8.03796 11.1807 8.22266C10.996 8.40707 10.7629 8.49707 10.5 8.49707C10.2394 8.49506 10.0059 8.40508 9.82129 8.22363C9.63448 8.0398 9.54402 7.80511 9.54492 7.54102C9.5461 7.27888 9.63587 7.04623 9.81934 6.8623C10.0032 6.67848 10.236 6.58618 10.498 6.58496ZM18.9424 7.47852C19.0526 7.74745 19.1498 8.02263 19.2324 8.30371L19.0996 7.8877C19.0514 7.75009 18.9987 7.61395 18.9434 7.47949L18.9424 7.47852ZM9.81348 7.39844L9.81152 7.40918C9.81258 7.40296 9.81518 7.39677 9.81641 7.39062L9.81348 7.39844ZM17.8574 5.5752C18.0365 5.81378 18.203 6.05787 18.3545 6.30859L18.1172 5.93652C17.9519 5.69192 17.7719 5.45416 17.5791 5.22168L17.8574 5.5752ZM3.4209 5.22168C3.36954 5.28363 3.32089 5.34735 3.27148 5.41016C3.3267 5.33997 3.3818 5.26931 3.43945 5.2002L3.4209 5.22168ZM5.43652 3.38281C5.19192 3.54806 4.95416 3.72813 4.72168 3.9209L5.0752 3.64258C5.31378 3.46354 5.55787 3.29701 5.80859 3.14551L5.43652 3.38281ZM7.3877 2.40039C7.1125 2.49685 6.84312 2.6084 6.58008 2.73242L6.97852 2.55762C7.24745 2.44744 7.52263 2.35023 7.80371 2.26758L7.3877 2.40039ZM9.56445 1.93555C9.25889 1.96313 8.95943 2.00541 8.66602 2.06055L9.11133 1.98926C9.41091 1.94791 9.71658 1.91905 10.0283 1.90527L9.56445 1.93555ZM11.7852 1.97559C11.6694 1.9609 11.5531 1.94616 11.4355 1.93555L11.4053 1.93359C11.533 1.94473 11.6595 1.95965 11.7852 1.97559Z" fill="white"/>
</svg>
