<svg width="16" height="17" viewBox="0 0 16 17" fill="none" xmlns="http://www.w3.org/2000/svg">
<path fill-rule="evenodd" clip-rule="evenodd" d="M8.00065 10.9753C8.25008 10.9753 8.4895 11.0737 8.66596 11.25C8.84213 11.4263 8.94182 11.6661 8.94198 11.9154C8.94184 12.1647 8.84216 12.4044 8.66596 12.5807C8.48949 12.7571 8.25013 12.8568 8.00065 12.8568C7.75117 12.8568 7.51182 12.7571 7.33534 12.5807C7.15913 12.4044 7.05946 12.1647 7.05932 11.9154C7.05948 11.6661 7.15917 11.4263 7.33534 11.25C7.5118 11.0737 7.75122 10.9753 8.00065 10.9753ZM8.48368 12.3984L8.54878 12.3216C8.55274 12.3163 8.55541 12.3101 8.5592 12.3047C8.53633 12.3375 8.51235 12.3698 8.48368 12.3984ZM7.35747 12.1458C7.35939 12.1511 7.36194 12.1562 7.36398 12.1615C7.34994 12.1251 7.33781 12.0879 7.33013 12.0495L7.35747 12.1458ZM8.68419 11.9154C8.68419 12.0005 8.66619 12.0835 8.63602 12.1615C8.65025 12.125 8.66346 12.088 8.67117 12.0495L8.68419 11.9154ZM8.48368 11.4323L8.40687 11.3659C8.3998 11.3607 8.39199 11.3565 8.38473 11.3516C8.41976 11.3754 8.45328 11.4019 8.48368 11.4323Z" fill="white"/>
<path fill-rule="evenodd" clip-rule="evenodd" d="M8.10611 4.14323C8.60207 4.1434 9.08697 4.29479 9.49402 4.57813C9.90105 4.86158 10.211 5.26405 10.3833 5.72917C10.5555 6.19445 10.5819 6.70201 10.4575 7.18229C10.3331 7.66227 10.0642 8.09232 9.68801 8.41536L8.98625 9.01823C8.9012 9.09132 8.83263 9.18198 8.78574 9.28385C8.76232 9.33479 8.74433 9.38826 8.73236 9.44271L8.71413 9.60938V10.0938C8.71412 10.2829 8.63824 10.4639 8.50452 10.5977C8.37072 10.7314 8.18985 10.8073 8.00065 10.8073C7.81145 10.8073 7.63058 10.7314 7.49679 10.5977C7.36305 10.4639 7.28719 10.2829 7.28717 10.0938V9.60938C7.28717 8.96572 7.56914 8.35354 8.05664 7.9349L8.7584 7.33464L8.86647 7.22656C8.96553 7.11126 9.03743 6.97391 9.07608 6.82552C9.12754 6.62744 9.117 6.41725 9.04614 6.22526C8.9751 6.03333 8.84689 5.867 8.67898 5.75C8.5531 5.66232 8.40874 5.60525 8.25844 5.58203L8.10611 5.57031H8.00065C7.70686 5.57031 7.42465 5.68686 7.21686 5.89453C7.0354 6.07607 6.92328 6.31455 6.89788 6.56771L6.89267 6.67839V6.77604C6.89257 6.96484 6.81768 7.1463 6.68435 7.27995C6.55069 7.41361 6.3682 7.48943 6.17918 7.48958C5.99013 7.48947 5.80771 7.41364 5.67402 7.27995C5.54062 7.14629 5.4658 6.96489 5.4657 6.77604V6.67839C5.46582 6.00648 5.73287 5.36197 6.20783 4.88672C6.68324 4.41131 7.32832 4.14323 8.00065 4.14323H8.10611ZM8.32224 10.4154C8.29812 10.4395 8.27122 10.46 8.24282 10.4779C8.24616 10.4758 8.25125 10.4749 8.25454 10.4727L8.32224 10.4154ZM8.47978 9.38672C8.47704 9.39919 8.47555 9.41191 8.47327 9.42448C8.48223 9.37553 8.49393 9.32709 8.50972 9.27995L8.47978 9.38672ZM8.22459 8.13021L8.07096 8.27734C8.0253 8.32609 7.98219 8.37686 7.94206 8.42969C8.02449 8.32135 8.11952 8.22042 8.22459 8.13021ZM8.97453 5.66016C9.1135 5.79227 9.2213 5.95543 9.28831 6.13672C9.199 5.89527 9.03733 5.68624 8.82611 5.53906L8.97453 5.66016ZM6.1219 5.39193C6.11904 5.3961 6.11691 5.40076 6.11409 5.40495C6.15325 5.34694 6.19447 5.29013 6.23908 5.23568L6.1219 5.39193ZM7.58141 4.4401C7.57665 4.441 7.57185 4.44178 7.56709 4.44271C7.6358 4.42938 7.70537 4.41972 7.77541 4.41276L7.58141 4.4401Z" fill="white"/>
<path fill-rule="evenodd" clip-rule="evenodd" d="M8.00065 0.5C10.1222 0.500003 12.1562 1.34365 13.6564 2.84375C15.1567 4.34399 16 6.37834 16 8.5C16 10.6217 15.1567 12.656 13.6564 14.1563C12.1562 15.6564 10.1222 16.5 8.00065 16.5C5.8791 16.5 3.84508 15.6563 2.34486 14.1563C0.84462 12.656 4.27791e-09 10.6217 0 8.5C9.41969e-08 6.37834 0.84462 4.34399 2.34486 2.84375C3.84508 1.34365 5.8791 0.5 8.00065 0.5ZM8.31833 15.3229L8.00065 15.3307C8.18434 15.3307 8.36702 15.3206 8.54878 15.306C8.4721 15.3122 8.3954 15.3193 8.31833 15.3229ZM8.00065 1.92708C6.25752 1.92708 4.58522 2.61903 3.35259 3.85156C2.11995 5.08421 1.42827 6.75677 1.42827 8.5C1.42827 10.2432 2.11995 11.9158 3.35259 13.1484C4.58522 14.381 6.25752 15.0729 8.00065 15.0729C9.74379 15.0729 11.4161 14.381 12.6487 13.1484C13.8814 11.9158 14.573 10.2432 14.573 8.5C14.573 6.75677 13.8814 5.08421 12.6487 3.85156C11.4161 2.61903 9.74379 1.92709 8.00065 1.92708ZM3.17032 13.3307C3.20879 13.3692 3.24951 13.4053 3.28879 13.4427L3.17032 13.3307ZM12.831 13.3294L12.7125 13.4427C12.7518 13.4053 12.7925 13.3679 12.831 13.3294ZM1.16918 8.5C1.16918 8.55651 1.17169 8.61292 1.17308 8.66927L1.16918 8.5ZM14.8308 8.5L14.8269 8.66927C14.8283 8.61291 14.8308 8.55652 14.8308 8.5C14.8308 8.38683 14.8286 8.27396 14.823 8.16146L14.8308 8.5ZM14.1759 5.58203C14.2708 5.7827 14.3562 5.98767 14.4311 6.19661L14.3113 5.88542C14.2264 5.68039 14.1308 5.47986 14.0262 5.28385L14.1759 5.58203ZM12.831 3.67057C13.2312 4.07085 13.5764 4.51584 13.8622 4.99349L13.6838 4.70964C13.4362 4.33845 13.1511 3.99071 12.831 3.67057ZM13.9884 3.59375C14.1443 3.78396 14.2909 3.98063 14.4272 4.18359C14.2205 3.8757 13.9911 3.58099 13.7398 3.30339L13.9884 3.59375ZM3.17032 3.66927C3.14714 3.69244 3.12542 3.71742 3.10261 3.74089L3.17032 3.66927C3.25046 3.58912 3.33276 3.51191 3.41639 3.4362L3.17032 3.66927ZM4.78347 2.47396C4.39124 2.68334 4.01872 2.93171 3.67158 3.21615L3.93718 3.01042C4.29677 2.74419 4.67993 2.51413 5.08162 2.32422L4.78347 2.47396ZM13.4742 3.02604L13.2138 2.77734C13.2117 2.77548 13.2093 2.774 13.2073 2.77214C13.2979 2.85457 13.3871 2.939 13.4742 3.02604ZM6.99162 1.74349C6.88116 1.75998 6.77145 1.78025 6.66222 1.80208L6.99162 1.74349C7.1022 1.72697 7.2133 1.71422 7.32493 1.70313L6.99162 1.74349ZM2.26153 3.30339L2.02718 3.57422C2.02287 3.57945 2.01846 3.5846 2.01416 3.58984C2.09402 3.49248 2.17668 3.39709 2.26153 3.30339Z" fill="white"/>
</svg>
