<svg width="111" height="112" viewBox="0 0 111 112" fill="none" xmlns="http://www.w3.org/2000/svg">
<path d="M46.6278 2.98291C70.7777 -3.48785 95.4182 5.2313 110.408 23.2827V99.3325C110.408 100.884 110.02 102.366 109.313 103.729C107.758 105.508 106.098 107.201 104.339 108.799C101.61 110.432 98.1604 111.408 94.4081 111.408H24.0927C14.0379 103.428 6.36455 92.2687 2.78703 78.9175C-6.07536 45.8426 13.553 11.8453 46.6278 2.98291ZM85.8476 22.7319C81.7911 20.3901 77.3364 20.0437 72.0497 20.7251C66.849 21.3955 60.4113 23.126 52.2167 25.3218C44.0202 27.518 37.5789 29.2377 32.7402 31.2573C27.8215 33.3105 24.1377 35.8379 21.7958 39.894C19.4538 43.9507 19.1075 48.406 19.789 53.6929C20.4594 58.8937 22.1908 65.3311 24.3866 73.5259C26.5829 81.7225 28.3015 88.1637 30.3212 93.0024C32.3743 97.921 34.9021 101.604 38.9579 103.946C43.0145 106.288 47.47 106.635 52.7568 105.954C57.9575 105.283 64.3951 103.552 72.5898 101.356C80.7863 99.1597 87.2276 97.4401 92.0663 95.4204C96.9852 93.3672 100.669 90.84 103.011 86.7837C105.353 82.7271 105.699 78.2726 105.017 72.9858C104.347 67.7851 102.616 61.3476 100.42 53.1528C98.2236 44.9562 96.504 38.5151 94.4843 33.6763C92.4311 28.7575 89.9038 25.0739 85.8476 22.7319ZM72.8173 26.6753C77.4385 26.0797 80.3854 26.5063 82.8486 27.9282C85.3116 29.3505 87.1526 31.6886 88.9472 35.9878C90.7754 40.3678 92.3838 46.3452 94.6239 54.7056C96.8636 63.0639 98.4594 69.0446 99.0663 73.7524C99.662 78.3741 99.2365 81.3204 97.8144 83.7837C96.3921 86.247 94.0543 88.0886 89.7548 89.8833C85.3748 91.7115 79.3973 93.3199 71.037 95.5601C62.6785 97.7997 56.697 99.3956 51.9892 100.002C47.3682 100.598 44.4219 100.172 41.9589 98.7505C39.4957 97.3282 37.6529 94.9903 35.8583 90.6909C34.0301 86.3109 32.4217 80.3335 30.1816 71.9731C27.9419 63.6145 26.346 57.6332 25.7392 52.9253C25.1436 48.3041 25.5702 45.3581 26.9921 42.895C28.4144 40.4316 30.7521 38.5892 35.0517 36.7944C39.4317 34.9662 45.4092 33.3578 53.7694 31.1177C62.1279 28.878 68.1095 27.2822 72.8173 26.6753ZM72.5136 45.8257C68.0144 43.2284 62.6937 42.4646 57.6562 43.6812L57.1698 43.8062C51.9895 45.1943 47.5711 48.5834 44.8896 53.228C42.2082 57.8726 41.4821 63.3935 42.87 68.5737C44.2582 73.7537 47.6477 78.1705 52.2919 80.8521C56.9365 83.5336 62.4573 84.2595 67.6376 82.8716C72.8178 81.4834 77.2344 78.0941 79.9159 73.4497C82.5973 68.8053 83.3242 63.2861 81.9364 58.106C80.5483 52.9255 77.1582 48.5073 72.5136 45.8257ZM59.0644 49.5151C62.6075 48.6593 66.3501 49.1961 69.5146 51.023C72.7808 52.9089 75.1643 56.0156 76.1405 59.6587C77.1166 63.302 76.6065 67.1842 74.7206 70.4507C72.8347 73.7171 69.7271 76.1004 66.0839 77.0767C62.441 78.0525 58.5591 77.5413 55.2929 75.6558C52.0266 73.7698 49.6422 70.6631 48.6659 67.02C47.6899 63.3768 48.201 59.4945 50.0868 56.228C51.9728 52.9616 55.0794 50.5774 58.7226 49.6011L59.0644 49.5151ZM79.9491 35.7456C79.0183 35.2683 77.9503 35.1278 76.9277 35.3481L76.7089 35.4009C75.621 35.6925 74.683 36.378 74.0751 37.3198L73.9569 37.5122C73.3942 38.4875 73.2162 39.6354 73.4521 40.731L73.5058 40.9487L73.5683 41.1655C73.9117 42.2322 74.6403 43.1374 75.6152 43.7007C76.6555 44.3013 77.8932 44.4644 79.0536 44.1538C80.2142 43.8428 81.2047 43.083 81.8056 42.0425C82.4063 41.0019 82.5687 39.7646 82.2577 38.604C81.9661 37.5161 81.2807 36.5772 80.3388 35.9692L80.1474 35.853L79.9491 35.7456ZM77.6435 38.3267C77.9764 38.272 78.3202 38.3346 78.6152 38.5044L78.6161 38.5054L78.7382 38.5835C78.9734 38.7523 79.1535 38.9874 79.2558 39.2583L79.3007 39.396L79.331 39.5386C79.3858 39.872 79.3245 40.216 79.1542 40.5112C78.9594 40.8486 78.6379 41.095 78.2616 41.1958C77.8854 41.2964 77.4837 41.244 77.1464 41.0493L77.0243 40.9702C76.7893 40.8013 76.6089 40.5662 76.5068 40.2954L76.4628 40.1567C76.3623 39.7808 76.4148 39.3796 76.6093 39.0425L76.6083 39.0415C76.803 38.7044 77.125 38.4589 77.5009 38.3579L77.6435 38.3267Z" fill="#F8F8F6" fill-opacity="0.03"/>
</svg>
