<svg width="14" height="14" viewBox="0 0 14 14" fill="none" xmlns="http://www.w3.org/2000/svg">
<g opacity="0.4">
<path d="M7.00098 0.900391C8.32018 0.900391 9.35484 0.89948 10.1611 1.00781C10.9803 1.11793 11.6307 1.34851 12.1416 1.85938C12.6524 2.37015 12.883 3.0199 12.9932 3.83887C13.1016 4.64516 13.1006 5.68024 13.1006 7C13.1006 8.31929 13.1015 9.35384 12.9932 10.1602C12.8831 10.9793 12.6525 11.6297 12.1416 12.1406C11.6308 12.6514 10.9811 12.882 10.1621 12.9922C9.35585 13.1006 8.32061 13.0996 7.00098 13.0996C5.68154 13.0996 4.64623 13.1005 3.83984 12.9922C3.02067 12.8821 2.37028 12.6515 1.85938 12.1406C1.34858 11.6298 1.11795 10.9801 1.00781 10.1611C0.89942 9.35484 0.900391 8.31976 0.900391 7C0.900391 5.68071 0.899468 4.64616 1.00781 3.83984C1.11793 3.02068 1.34847 2.37026 1.85938 1.85938C2.37015 1.34864 3.01993 1.11796 3.83887 1.00781C4.64523 0.899429 5.68111 0.900391 7.00098 0.900391ZM7.00098 1.7959C5.65605 1.7959 4.69177 1.79706 3.95898 1.89551C3.23909 1.99229 2.80885 2.17555 2.49219 2.49219C2.17554 2.80884 1.99229 3.23897 1.89551 3.95898C1.79702 4.69181 1.7959 5.65536 1.7959 7C1.7959 8.3448 1.79705 9.3083 1.89551 10.041C1.99229 10.7609 2.17553 11.1912 2.49219 11.5078C2.80884 11.8244 3.239 12.0077 3.95898 12.1045C4.69187 12.203 5.65621 12.2041 7.00098 12.2041C8.34565 12.2041 9.3093 12.2029 10.042 12.1045C10.7619 12.0077 11.1921 11.8244 11.5088 11.5078C11.8254 11.1912 12.0087 10.761 12.1055 10.041C12.204 9.30819 12.2051 8.34464 12.2051 7C12.2051 5.6552 12.2039 4.6917 12.1055 3.95898C12.0087 3.23907 11.8254 2.80885 11.5088 2.49219C11.1921 2.17556 10.762 1.9923 10.042 1.89551C9.30919 1.79704 8.34548 1.7959 7.00098 1.7959ZM7.00293 3.875L7.15234 3.87793L7.15527 3.87891C7.92773 3.91717 8.66144 4.24065 9.21094 4.79004C9.79679 5.376 10.1259 6.17152 10.126 7C10.1259 7.82846 9.79679 8.62399 9.21094 9.20996C8.62495 9.79582 7.82957 10.1249 7.00098 10.125C6.17228 10.125 5.37709 9.79582 4.79102 9.20996C4.24161 8.6606 3.9173 7.92753 3.87891 7.15527V7.15234L3.875 7.00195V7C3.87511 6.17132 4.20504 5.37597 4.79102 4.79004C5.37709 4.20417 6.17228 3.875 7.00098 3.875H7.00293ZM6.99707 4.77051C6.48116 4.77134 5.98371 4.95121 5.58789 5.27539L5.42383 5.42383C5.00593 5.84179 4.77159 6.40894 4.77148 7L4.78223 7.2207L4.80859 7.41016C4.89072 7.84881 5.10378 8.25608 5.42383 8.57617C5.84198 8.99429 6.40969 9.22949 7.00098 9.22949C7.59205 9.22937 8.15912 8.99411 8.57715 8.57617C8.99499 8.15823 9.23036 7.59104 9.23047 7C9.23038 6.48281 9.0505 5.98351 8.72559 5.58691L8.57715 5.42383C8.21133 5.0581 7.73105 4.83291 7.2207 4.78223V4.78125L6.99707 4.77051ZM10.2891 3.2793L10.2773 3.37988L10.2891 3.28027L10.3584 3.28809L10.3672 3.28906L10.4414 3.31152C10.6075 3.37677 10.7254 3.53789 10.7256 3.72754C10.7256 3.94452 10.5712 4.12448 10.3672 4.16602L10.3584 4.16797L10.2891 4.17578L10.2773 4.17676V4.17578H10.2715C10.0243 4.17562 9.82324 3.97476 9.82324 3.72754C9.82342 3.48047 10.0244 3.27946 10.2715 3.2793H10.2891Z" fill="white" stroke="white" stroke-width="0.2" stroke-linecap="round" stroke-linejoin="round"/>
</g>
</svg>
