<svg width="123" height="159" viewBox="0 0 123 159" fill="none" xmlns="http://www.w3.org/2000/svg">
<path d="M9.10938 0C3.87736 13.1475 1 27.4877 1 42.5C1 106.013 52.4873 157.5 116 157.5C118.181 157.5 120.349 157.436 122.5 157.316V158.318C120.348 158.437 118.181 158.5 116 158.5C51.935 158.5 0 106.565 0 42.5C0 27.4978 2.84755 13.1607 8.03223 0H9.10938ZM48.2119 0C40.4754 12.3139 36 26.8841 36 42.5C36 86.6828 71.8172 122.5 116 122.5C118.188 122.5 120.356 122.411 122.5 122.238V123.241C120.356 123.411 118.188 123.5 116 123.5C71.2649 123.5 35 87.2351 35 42.5C35 26.9128 39.4044 12.3548 47.0342 0H48.2119ZM93.6758 0C78.4103 8.03515 68 24.0506 68 42.5C68 69.0097 89.4903 90.5 116 90.5C118.205 90.5 120.374 90.3503 122.5 90.0625V91.0713C120.373 91.3532 118.204 91.5 116 91.5C88.938 91.5 67 69.562 67 42.5C67 24.3233 76.8974 8.45851 91.5967 0H93.6758ZM115.079 6.72949C116.672 6.66543 118.278 6.79599 119.823 7.13965C120.086 7.53412 120.333 7.9403 120.561 8.3584C118.827 7.85685 116.975 7.65482 115.119 7.72949C108.862 7.98134 102.856 11.3513 101.453 16.5859L96.1709 36.2949L103.531 43.7891L109.27 22.375L109.343 22.0986L109.618 22.0225L122.5 18.4463V19.4844L110.161 22.9092L107.396 33.2266L122.5 29.0332V30.0703L118.265 31.2461L122.5 35.5576V36.9854L117.163 31.5527L107.097 34.3467L104.345 44.6172L111.663 52.0684L121.731 49.2734L122.5 46.4053V50.2676L119.559 61.2471L119.484 61.5225L119.209 61.5996L99.6963 67.0137C101.671 73.4634 107.673 76.1355 113.709 75.8926C116.897 75.7643 120.018 74.8244 122.5 73.2432V74.416C119.931 75.9095 116.833 76.7675 113.749 76.8916C107.402 77.147 100.846 74.3073 98.7207 67.2422C93.2274 68.2329 87.4723 64.3577 84.2422 59.0625C80.9112 53.6017 80.1083 46.388 85.0664 40.9199C83.3813 38.8586 82.6021 36.1846 82.5557 33.373C82.5042 30.2542 83.3509 26.9318 84.8975 23.9951C87.9019 18.2904 93.647 13.9039 100.749 15.4961C102.684 10.1632 108.911 6.97775 115.079 6.72949ZM85.7402 41.665C81.2477 46.6957 81.9274 53.348 85.0957 58.542C88.3871 63.9376 94.1981 67.5034 99.3223 66.0811L118.666 60.7119L121.431 50.3945L100.41 56.2305L100.126 56.3096L99.9199 56.0996L85.7402 41.665ZM100.452 16.4531C93.9771 15.0462 88.65 19.0156 85.7822 24.4609C84.3061 27.2639 83.5072 30.4222 83.5557 33.3574C83.6042 36.2926 84.4979 38.9705 86.3643 40.873L100.426 55.1875L110.562 52.374L95.2578 36.793L95.0576 36.5889L95.1318 36.3125L100.452 16.4531Z" fill="#F8F8F6" fill-opacity="0.16"/>
</svg>
