<svg width="79" height="78" viewBox="0 0 79 78" fill="none" xmlns="http://www.w3.org/2000/svg">
<path d="M5.14941 0C4.39533 1.93083 3.73944 3.92277 3.19043 5.97168C-4.85122 35.9838 12.9596 66.8332 42.9717 74.875C55.397 78.2043 67.9656 77.1015 79 72.5371V73.6162C67.8617 78.1305 55.2163 79.191 42.7129 75.8408C12.1673 67.6561 -5.95998 36.2585 2.22461 5.71289C2.74885 3.75641 3.36877 1.85093 4.07715 0H5.14941ZM24.8799 0C22.8768 3.18779 21.3096 6.72486 20.2842 10.5518C14.7721 31.1235 26.9801 52.2689 47.5518 57.7812C58.7328 60.7771 70.0822 58.5366 79 52.5654V53.7627C69.938 59.613 58.5324 61.7586 47.293 58.7471C26.1879 53.0918 13.6633 31.3982 19.3184 10.293C20.3137 6.57838 21.8077 3.13064 23.7061 0H24.8799ZM45.874 0C40.57 3.01192 36.4281 8.06374 34.7246 14.4209C31.3494 27.0176 38.8242 39.9664 51.4209 43.3418C62.7178 46.3687 74.2959 40.6675 79 30.373V32.583C73.6274 42.1702 62.2641 47.2823 51.1621 44.3076C38.032 40.7893 30.2397 27.2923 33.7578 14.1621C35.3785 8.11364 39.1175 3.19922 43.9619 0H45.874ZM53.168 35.3047L65.0645 25.9688L65.373 26.3623L65.6816 26.7549L53.2617 36.5039L52.7373 36.915L52.4893 36.2969L46.6084 21.6445L47.0723 21.458L47.5361 21.2725L53.168 35.3047ZM61.5898 5.42383L67.4717 20.0752L67.6113 20.4238L67.3164 20.6553L54.8965 30.4033L54.3721 30.8154L54.124 30.1963L48.2432 15.5439L48.1035 15.1963L48.3984 14.9648L60.8174 5.21582L61.3418 4.80469L61.5898 5.42383ZM49.3096 15.5195L54.8027 29.2051L66.4023 20.0996L60.9102 6.41406L49.3096 15.5195Z" fill="#F8F8F6" fill-opacity="0.16"/>
</svg>
