<svg width="13" height="13" viewBox="0 0 13 13" fill="none" xmlns="http://www.w3.org/2000/svg">
<path d="M5.33203 0C5.52835 0 5.6875 0.159149 5.6875 0.355469V5.33203C5.6875 5.52835 5.52835 5.6875 5.33203 5.6875H0.355469C0.159149 5.6875 0 5.52835 0 5.33203V0.355469C0 0.159149 0.159149 0 0.355469 0H5.33203ZM0.710938 4.97656H4.97656V0.710938H0.710938V4.97656Z" fill="white"/>
<path d="M12.6445 0C12.8409 0 13 0.159149 13 0.355469V5.33203C13 5.52835 12.8409 5.6875 12.6445 5.6875H7.66797C7.47165 5.6875 7.3125 5.52835 7.3125 5.33203V0.355469C7.3125 0.159149 7.47165 0 7.66797 0H12.6445ZM8.02344 4.97656H12.2891V0.710938H8.02344V4.97656Z" fill="white"/>
<path d="M5.33203 7.3125C5.52835 7.3125 5.6875 7.47165 5.6875 7.66797V12.6445C5.6875 12.8409 5.52835 13 5.33203 13H0.355469C0.159149 13 0 12.8409 0 12.6445V7.66797C0 7.47165 0.159149 7.3125 0.355469 7.3125H5.33203ZM0.710938 12.2891H4.97656V8.02344H0.710938V12.2891Z" fill="white"/>
<path d="M12.6445 7.3125C12.8409 7.3125 13 7.47165 13 7.66797V12.6445C13 12.8409 12.8409 13 12.6445 13H7.66797C7.47165 13 7.3125 12.8409 7.3125 12.6445V7.66797C7.3125 7.47165 7.47165 7.3125 7.66797 7.3125H12.6445ZM8.02344 12.2891H12.2891V8.02344H8.02344V12.2891Z" fill="white"/>
</svg>
