<svg width="21" height="23" viewBox="0 0 21 23" fill="none" xmlns="http://www.w3.org/2000/svg">
<path fill-rule="evenodd" clip-rule="evenodd" d="M16.9391 17.1934C17.2185 17.1934 17.4451 17.4427 17.4451 17.75C17.4451 18.0573 17.2185 18.3066 16.9391 18.3066H7.84819C7.56894 18.3065 7.34215 18.0572 7.34215 17.75C7.34215 17.4428 7.56894 17.1935 7.84819 17.1934H16.9391Z" fill="white" fill-opacity="0.5"/>
<path fill-rule="evenodd" clip-rule="evenodd" d="M16.9391 13.8604C17.2185 13.8604 17.4451 14.1097 17.4451 14.417C17.445 14.7242 17.2184 14.9736 16.9391 14.9736H7.84819C7.56904 14.9735 7.34231 14.7241 7.34215 14.417C7.34215 14.1098 7.56894 13.8605 7.84819 13.8604H16.9391Z" fill="white" fill-opacity="0.5"/>
<path fill-rule="evenodd" clip-rule="evenodd" d="M16.9391 10.5264C17.2184 10.5264 17.445 10.7758 17.4451 11.083C17.4451 11.3903 17.2185 11.6396 16.9391 11.6396H7.84819C7.56894 11.6395 7.34215 11.3902 7.34215 11.083C7.34231 10.7759 7.56904 10.5265 7.84819 10.5264H16.9391Z" fill="white" fill-opacity="0.5"/>
<path fill-rule="evenodd" clip-rule="evenodd" d="M10.1209 3.86035C10.8177 3.86035 11.3851 4.48351 11.3851 5.25V6.91699C11.385 7.68333 10.8176 8.30664 10.1209 8.30664H8.60635C7.90965 8.30664 7.34231 7.68333 7.34215 6.91699V5.25C7.34215 4.48351 7.90955 3.86035 8.60635 3.86035H10.1209ZM11.2076 7.28223C11.2289 7.20557 11.2444 7.12602 11.252 7.04395L11.2342 7.16797C11.227 7.20676 11.218 7.24483 11.2076 7.28223ZM8.60635 4.97363C8.46755 4.97363 8.35422 5.09732 8.35422 5.25V6.91699C8.35438 7.06952 8.46765 7.19336 8.60635 7.19336H10.1209C10.2596 7.19336 10.3729 7.06952 10.373 6.91699V5.25C10.373 5.09732 10.2597 4.97363 10.1209 4.97363H8.60635Z" fill="white" fill-opacity="0.5"/>
<path fill-rule="evenodd" clip-rule="evenodd" d="M16.9391 7.19336C17.2185 7.19336 17.4451 7.44268 17.4451 7.75C17.4451 8.05732 17.2185 8.30664 16.9391 8.30664H13.1518C12.8724 8.30664 12.6458 8.05732 12.6458 7.75C12.6458 7.44268 12.8724 7.19336 13.1518 7.19336H16.9391Z" fill="white" fill-opacity="0.5"/>
<path fill-rule="evenodd" clip-rule="evenodd" d="M16.1818 1.36035C18.1317 1.36035 19.7179 3.10518 19.7179 5.25V17.75C19.7179 19.8948 18.1317 21.6396 16.1818 21.6396H3.68182C2.44121 21.6396 1.41771 20.5991 1.29456 19.2695L1.28214 19V10.667C1.28214 8.75145 2.69773 7.19354 4.4391 7.19336H5.06942V5.25C5.06942 3.10518 6.65652 1.36035 8.60635 1.36035H16.1818ZM8.60635 2.47363C7.21452 2.47363 6.0815 3.71899 6.0815 5.25V19C6.0815 19.569 5.91583 20.0951 5.63672 20.5264H16.1818C17.5736 20.5264 18.7058 19.281 18.7058 17.75V5.25C18.7058 3.71899 17.5736 2.47363 16.1818 2.47363H8.60635ZM4.4391 8.30664C3.25649 8.30682 2.29421 9.36609 2.29421 10.667V19C2.29421 19.8418 2.9165 20.5264 3.68182 20.5264C4.44713 20.5264 5.06942 19.8418 5.06942 19V8.30664H4.4391ZM5.15731 19.374C5.15998 19.3613 5.16379 19.3488 5.16619 19.3359L5.16797 19.3252C5.165 19.3417 5.16072 19.3577 5.15731 19.374ZM19.5732 18.1328C19.5681 18.1872 19.5625 18.2413 19.5554 18.2949C19.5708 18.179 19.581 18.0614 19.5865 17.9424L19.5732 18.1328ZM1.42418 10.334C1.41426 10.4435 1.40909 10.5546 1.40909 10.667L1.41264 10.4951C1.41514 10.441 1.41935 10.3874 1.42418 10.334ZM8.33558 2.34863C8.31831 2.35057 8.30126 2.35415 8.28409 2.35645C8.34539 2.34824 8.40713 2.34042 8.46964 2.33691L8.33558 2.34863ZM16.6461 1.53516C16.5508 1.52081 16.4543 1.51034 16.3567 1.50488L16.5298 1.51953C16.5688 1.5239 16.6075 1.52935 16.6461 1.53516ZM18.8336 5.25L18.8301 5.10059C18.8281 5.057 18.824 5.01377 18.8203 4.9707C18.8283 5.06268 18.8336 5.15576 18.8336 5.25Z" fill="white" fill-opacity="0.5"/>
</svg>
