<svg width="20" height="21" viewBox="0 0 20 21" fill="none" xmlns="http://www.w3.org/2000/svg">
<path d="M0 18.8333V8.83333C0 6.9925 1.4925 5.5 3.33333 5.5V18.8333C3.33333 19.7542 2.5875 20.5 1.66667 20.5C0.745833 20.5 0 19.7542 0 18.8333ZM20 4.66667V16.3333C20 18.6342 18.1342 20.5 15.8333 20.5H4.53667C4.82417 20.0075 5 19.4433 5 18.8333V4.66667C5 2.36583 6.86583 0.5 9.16667 0.5H15.8333C18.1342 0.5 20 2.36583 20 4.66667ZM8.33333 7.16667H10C10.46 7.16667 10.8333 6.79333 10.8333 6.33333V4.66667C10.8333 4.20667 10.46 3.83333 10 3.83333H8.33333C7.87333 3.83333 7.5 4.20667 7.5 4.66667V6.33333C7.5 6.79333 7.87333 7.16667 8.33333 7.16667ZM16.6667 15.5H8.33333C7.87333 15.5 7.5 15.8733 7.5 16.3333C7.5 16.7933 7.87333 17.1667 8.33333 17.1667H16.6667C17.1267 17.1667 17.5 16.7933 17.5 16.3333C17.5 15.8733 17.1267 15.5 16.6667 15.5ZM16.6667 12.1667H8.33333C7.87333 12.1667 7.5 12.54 7.5 13C7.5 13.46 7.87333 13.8333 8.33333 13.8333H16.6667C17.1267 13.8333 17.5 13.46 17.5 13C17.5 12.54 17.1267 12.1667 16.6667 12.1667ZM16.6667 8.83333H8.33333C7.87333 8.83333 7.5 9.20667 7.5 9.66667C7.5 10.1267 7.87333 10.5 8.33333 10.5H16.6667C17.1267 10.5 17.5 10.1267 17.5 9.66667C17.5 9.20667 17.1267 8.83333 16.6667 8.83333ZM16.6667 5.5H13.3333C12.8733 5.5 12.5 5.87333 12.5 6.33333C12.5 6.79333 12.8733 7.16667 13.3333 7.16667H16.6667C17.1267 7.16667 17.5 6.79333 17.5 6.33333C17.5 5.87333 17.1267 5.5 16.6667 5.5Z" fill="white"/>
</svg>
