<svg width="26" height="47" viewBox="0 0 26 47" fill="none" xmlns="http://www.w3.org/2000/svg">
<path d="M10.8642 32.0219L11.0504 29.0272C11.132 27.7153 11.3843 26.5643 11.8072 25.5742C12.2301 24.5841 12.8951 23.652 13.8022 22.7779C14.7237 21.9047 15.9579 21.0008 17.5048 20.0663C19.0372 19.1309 20.248 18.2542 21.1372 17.4362C22.0417 16.6049 22.6942 15.7579 23.0947 14.8953C23.5105 14.0193 23.7503 13.0679 23.8142 12.0412C23.9268 10.2301 23.5946 8.59898 22.8176 7.14776C22.0415 5.68229 20.9295 4.50371 19.4818 3.61203C18.0484 2.72125 16.4031 2.21812 14.5457 2.10263C12.5876 1.98088 10.8103 2.32131 9.2138 3.12391C7.63262 3.91315 6.34781 5.05007 5.35937 6.53467C4.38621 8.00591 3.83933 9.71123 3.71875 11.6506L2.33653 11.5647C2.47307 9.3686 3.09937 7.43202 4.21541 5.75494C5.33145 4.07785 6.79204 2.78724 8.59716 1.88308C10.4167 0.979824 12.4279 0.59668 14.6308 0.733651C16.7474 0.865249 18.6191 1.44688 20.246 2.47853C21.8874 3.51109 23.1547 4.86395 24.048 6.53713C24.9422 8.19605 25.325 10.0594 25.1964 12.1271C25.1219 13.325 24.844 14.4243 24.3626 15.4251C23.8965 16.4125 23.1649 17.3691 22.1679 18.2948C21.1708 19.2206 19.8525 20.198 18.2131 21.2269C16.7841 22.1258 15.6556 22.9575 14.8275 23.722C14.0148 24.4732 13.4302 25.2743 13.0737 26.1253C12.7182 26.9622 12.5045 27.9581 12.4327 29.1132L12.2465 32.1078L10.8642 32.0219ZM10.7308 45.3269C10.2988 45.3 9.94098 45.1275 9.65724 44.8092C9.3735 44.4909 9.24493 44.1179 9.27153 43.6901C9.29813 43.2623 9.47192 42.908 9.7929 42.6274C10.1139 42.3467 10.4903 42.2198 10.9223 42.2467C11.3542 42.2735 11.7121 42.4461 11.9958 42.7643C12.2796 43.0826 12.4081 43.4556 12.3815 43.8835C12.3638 44.1687 12.2754 44.428 12.1163 44.6615C11.9726 44.8816 11.7743 45.0482 11.5216 45.1613C11.2823 45.2896 11.0187 45.3448 10.7308 45.3269Z" fill="#F8F8F6" fill-opacity="0.16"/>
</svg>
