<svg width="13" height="13" viewBox="0 0 13 13" fill="none" xmlns="http://www.w3.org/2000/svg">
<path fill-rule="evenodd" clip-rule="evenodd" d="M6.5 0C10.0903 0 13 2.90994 13 6.5C13 10.0903 10.0903 13 6.5 13C2.90994 13 0 10.0903 0 6.5C1.71655e-08 2.90994 2.90994 1.7165e-08 6.5 0ZM6.5 1.01153C3.47402 1.01153 1.01153 3.47402 1.01153 6.5C1.01154 9.52631 3.47434 12.001 6.5 12.001C9.52566 12.001 11.9885 9.52627 11.9885 6.5C11.9885 3.47403 9.52598 1.01153 6.5 1.01153ZM12.0946 6.5L12.0873 6.21278C12.0853 6.17203 12.0809 6.13153 12.078 6.09102C12.0878 6.22613 12.0946 6.36243 12.0946 6.5ZM12.82 5.52594L12.7721 5.25016C12.77 5.23968 12.7669 5.2294 12.7648 5.21894C12.7855 5.32046 12.8042 5.42274 12.82 5.52594ZM2.01785 3.15426C2.00206 3.17537 1.98757 3.19744 1.97206 3.21878C2.04032 3.12484 2.11053 3.03242 2.18436 2.943L2.01785 3.15426Z" fill="#FF7B7B"/>
<path d="M8.68126 3.88587C8.88934 3.67779 9.22662 3.67779 9.4347 3.88587C9.64278 4.09395 9.64278 4.43124 9.4347 4.63932L7.41373 6.66029L9.4347 8.68126L9.50339 8.76452C9.63997 8.97133 9.61678 9.25262 9.4347 9.4347C9.25262 9.61678 8.97133 9.63997 8.76452 9.50339L8.68126 9.4347L6.66029 7.41373L4.63932 9.4347C4.43124 9.64278 4.09395 9.64278 3.88587 9.4347C3.67779 9.22662 3.67779 8.88934 3.88587 8.68126L5.90685 6.66029L3.88587 4.63932L3.81719 4.55606C3.68061 4.34924 3.70379 4.06795 3.88587 3.88587C4.06795 3.70379 4.34924 3.68061 4.55606 3.81719L4.63932 3.88587L6.66029 5.90685L8.68126 3.88587Z" fill="#FF7B7B"/>
</svg>
