<svg width="15" height="16" viewBox="0 0 15 16" fill="none" xmlns="http://www.w3.org/2000/svg">
  <path d="M13.8383 7.68562C13.7605 6.11698 13.1028 4.62889 11.9869 3.51307C10.7968 2.32294 9.1831 1.65385 7.5 1.65385C5.8169 1.65385 4.20321 2.32294 3.01307 3.51307C1.82294 4.70321 1.15385 6.3169 1.15385 8L1.16173 8.31438C1.23948 9.88302 1.89725 11.3711 3.01307 12.4869C4.20321 13.6771 5.8169 14.3462 7.5 14.3462C9.1831 14.3462 10.7968 13.6771 11.9869 12.4869C13.1771 11.2968 13.8462 9.6831 13.8462 8L13.8383 7.68562ZM14.991 8.37184C14.899 10.2256 14.1225 11.9852 12.8039 13.3039C11.3973 14.7104 9.48912 15.5 7.5 15.5C5.51088 15.5 3.60266 14.7104 2.19614 13.3039C0.877508 11.9852 0.100961 10.2256 0.00901442 8.37184L0 8C4.43963e-08 6.01088 0.789616 4.10266 2.19614 2.69614C3.60266 1.28962 5.51088 0.5 7.5 0.5C9.48912 0.5 11.3973 1.28962 12.8039 2.69614C14.2104 4.10266 15 6.01088 15 8L14.991 8.37184Z" fill="white" />
  <path d="M7.50001 8.83333C5.83716 8.83333 4.40634 10.0617 4.17095 11.6908C4.13816 11.9183 4.29705 12.1292 4.5274 12.1625C4.75185 12.1908 4.96959 12.0375 5.00322 11.8092C5.17976 10.5883 6.25245 9.66667 7.50001 9.66667C8.74756 9.66667 9.82026 10.5875 9.9968 11.8092C10.0271 12.0175 10.207 12.1667 10.4121 12.1667C10.4323 12.1667 10.4524 12.1658 10.4726 12.1625C10.7021 12.1292 10.8619 11.9192 10.8291 11.6908C10.5937 10.0617 9.16286 8.83333 7.50001 8.83333ZM5.39833 5.91667C5.39833 4.76833 6.34072 3.83333 7.50001 3.83333C8.65929 3.83333 9.60169 4.76833 9.60169 5.91667C9.60169 7.065 8.65929 8 7.50001 8C6.34072 8 5.39833 7.065 5.39833 5.91667ZM6.239 5.91667C6.239 6.60583 6.80477 7.16667 7.50001 7.16667C8.19524 7.16667 8.76102 6.60583 8.76102 5.91667C8.76102 5.2275 8.19524 4.66667 7.50001 4.66667C6.80477 4.66667 6.239 5.2275 6.239 5.91667Z" fill="white" />
</svg>