<svg width="13" height="13" viewBox="0 0 13 13" fill="none" xmlns="http://www.w3.org/2000/svg">
<path d="M11.6188 12.1875V12.7292C11.6188 12.8787 11.4914 13 11.3344 13C11.1774 13 11.05 12.8787 11.05 12.7292V12.1875C11.05 10.8436 9.90169 9.75 8.49063 9.75H4.50938C3.09831 9.75 1.95 10.8436 1.95 12.1875V12.7292C1.95 12.8787 1.8226 13 1.66563 13C1.50865 13 1.38125 12.8787 1.38125 12.7292V12.1875C1.38125 10.5452 2.78436 9.20833 4.50938 9.20833H8.49063C10.2156 9.20833 11.6188 10.5452 11.6188 12.1875ZM12.1875 4.0625V5.6875C12.1875 6.13546 11.8047 6.5 11.3344 6.5H11.0295C10.8913 7.41758 10.0604 8.125 9.05938 8.125H3.94063C2.93963 8.125 2.10868 7.41758 1.97047 6.5H1.66563C1.19527 6.5 0.8125 6.13546 0.8125 5.6875V4.0625C0.8125 3.61454 1.19527 3.25 1.66563 3.25H1.95V2.97917C1.95 1.93375 2.84294 1.08333 3.94063 1.08333H6.21563V0.270833C6.21563 0.121333 6.34303 0 6.5 0C6.65698 0 6.78438 0.121333 6.78438 0.270833V1.08333H9.05938C10.1571 1.08333 11.05 1.93375 11.05 2.97917V3.25H11.3344C11.8047 3.25 12.1875 3.61454 12.1875 4.0625ZM1.66563 5.95833H1.95V3.79167H1.66563C1.50865 3.79167 1.38125 3.91354 1.38125 4.0625V5.6875C1.38125 5.83646 1.50865 5.95833 1.66563 5.95833ZM10.4813 6.22917V2.97917C10.4813 2.23221 9.84311 1.625 9.05938 1.625H3.94063C3.15689 1.625 2.51875 2.23221 2.51875 2.97917V6.22917C2.51875 6.97613 3.15689 7.58333 3.94063 7.58333H9.05938C9.84311 7.58333 10.4813 6.97613 10.4813 6.22917ZM11.6188 4.0625C11.6188 3.91354 11.4914 3.79167 11.3344 3.79167H11.05V5.95833H11.3344C11.4914 5.95833 11.6188 5.83646 11.6188 5.6875V4.0625ZM5.93125 4.875C5.93125 5.47246 5.42108 5.95833 4.79375 5.95833C4.16642 5.95833 3.65625 5.47246 3.65625 4.875C3.65625 4.27754 4.16642 3.79167 4.79375 3.79167C5.42108 3.79167 5.93125 4.27754 5.93125 4.875ZM5.3625 4.875C5.3625 4.576 5.10713 4.33333 4.79375 4.33333C4.48037 4.33333 4.225 4.576 4.225 4.875C4.225 5.174 4.48037 5.41667 4.79375 5.41667C5.10713 5.41667 5.3625 5.174 5.3625 4.875ZM9.34375 4.875C9.34375 5.47246 8.83358 5.95833 8.20625 5.95833C7.57892 5.95833 7.06875 5.47246 7.06875 4.875C7.06875 4.27754 7.57892 3.79167 8.20625 3.79167C8.83358 3.79167 9.34375 4.27754 9.34375 4.875ZM8.775 4.875C8.775 4.576 8.51963 4.33333 8.20625 4.33333C7.89287 4.33333 7.6375 4.576 7.6375 4.875C7.6375 5.174 7.89287 5.41667 8.20625 5.41667C8.51963 5.41667 8.775 5.174 8.775 4.875Z" fill="white"/>
</svg>
