<svg width="17" height="17" viewBox="0 0 17 17" fill="none" xmlns="http://www.w3.org/2000/svg">
<path d="M16.2674 17L9.76958 10.503C9.25075 10.945 8.65409 11.287 7.97961 11.5291C7.30513 11.7712 6.6272 11.8922 5.9458 11.8922C4.28416 11.8922 2.87778 11.3171 1.72667 10.1668C0.575556 9.01652 0 7.61066 0 5.94922C0 4.28779 0.574864 2.88123 1.72459 1.72957C2.87432 0.577909 4.28001 0.00138587 5.94165 2.48809e-06C7.60329 -0.00138089 9.01036 0.574105 10.1629 1.72646C11.3153 2.87881 11.8916 4.28536 11.8916 5.94611C11.8916 6.66685 11.764 7.36442 11.5087 8.03882C11.2534 8.71321 10.9179 9.29008 10.5022 9.76943L17 16.2654L16.2674 17ZM5.94684 10.8536C7.32347 10.8536 8.48565 10.3798 9.43338 9.43223C10.3811 8.48461 10.855 7.32223 10.855 5.94507C10.855 4.56792 10.3811 3.40588 9.43338 2.45896C8.48565 1.51204 7.32347 1.03823 5.94684 1.03754C4.5702 1.03684 3.40768 1.51065 2.45926 2.45896C1.51083 3.40726 1.03697 4.5693 1.03766 5.94507C1.03835 7.32084 1.51222 8.48288 2.45926 9.43119C3.4063 10.3795 4.56848 10.8533 5.9458 10.8526" fill="white"/>
</svg>
