<svg width="15" height="13" viewBox="0 0 15 13" fill="none" xmlns="http://www.w3.org/2000/svg">
<path d="M9.8283 0C10.6385 6.35142e-05 11.3862 0.41877 11.7863 1.09668L14.3439 5.43066C14.7351 6.09392 14.7351 6.90608 14.3439 7.56934L11.7863 11.9033L11.7072 12.0273C11.2924 12.6319 10.5879 12.9999 9.8283 13H4.80876L4.65837 12.9951C3.95731 12.9498 3.318 12.5915 2.93084 12.0273L2.85173 11.9033L0.29314 7.56934C-0.0735163 6.94755 -0.0961153 6.19477 0.22478 5.55664L0.29314 5.43066L2.85173 1.09668C3.22686 0.461236 3.9072 0.0533879 4.65837 0.00488281L4.80876 0H9.8283ZM4.80876 0.736328C4.31732 0.736515 3.85599 0.974921 3.5822 1.37402L3.52947 1.45605L0.972827 5.78906C0.713091 6.22917 0.713092 6.77083 0.972827 7.21094L3.52947 11.5439L3.5822 11.626C3.85599 12.0251 4.31732 12.2635 4.80876 12.2637H9.8283C10.3527 12.2636 10.8429 11.9923 11.1076 11.5439L13.6652 7.21094L13.7101 7.12695C13.909 6.73153 13.909 6.26847 13.7101 5.87305L13.6652 5.78906L11.1076 1.45605C10.8429 1.00765 10.3527 0.736392 9.8283 0.736328H4.80876ZM7.31853 3.96484C8.78261 3.96484 9.95915 5.10533 9.95916 6.5C9.95916 7.89467 8.78261 9.03516 7.31853 9.03516C5.85454 9.03505 4.67791 7.89461 4.67791 6.5C4.67791 5.10539 5.85454 3.96495 7.31853 3.96484ZM7.31853 4.70117C6.29533 4.70128 5.45525 5.50144 5.45525 6.5C5.45525 7.49856 6.29533 8.29872 7.31853 8.29883C8.34182 8.29883 9.18181 7.49863 9.18181 6.5C9.18181 5.50138 8.34182 4.70117 7.31853 4.70117Z" fill="white"/>
</svg>
