<svg width="13" height="8" viewBox="0 0 13 8" fill="none" xmlns="http://www.w3.org/2000/svg">
<path d="M13 4C13 4.2208 12.8176 4.4 12.5929 4.4H10.9643V6C10.9643 6.2208 10.7819 6.4 10.5572 6.4C10.3324 6.4 10.15 6.2208 10.15 6V4.4H8.52148C8.29674 4.4 8.11434 4.2208 8.11434 4C8.11434 3.7792 8.29674 3.6 8.52148 3.6H10.15V2C10.15 1.7792 10.3324 1.6 10.5572 1.6C10.7819 1.6 10.9643 1.7792 10.9643 2V3.6H12.5929C12.8176 3.6 13 3.7792 13 4ZM3.22868 4.8C1.61805 4.8 0.232147 5.9792 0.00415 7.5432C-0.0276068 7.7616 0.126292 7.964 0.349403 7.996C0.566815 8.0232 0.777713 7.876 0.810284 7.6568C0.981282 6.4848 2.0203 5.6 3.22868 5.6C4.43707 5.6 5.47609 6.484 5.64709 7.6568C5.6764 7.8568 5.85065 8 6.04934 8C6.06888 8 6.08842 7.9992 6.10796 7.996C6.33026 7.964 6.48498 7.7624 6.45322 7.5432C6.22522 5.9792 4.83932 4.8 3.22868 4.8ZM1.19299 2C1.19299 0.8976 2.1058 0 3.22868 0C4.35157 0 5.26437 0.8976 5.26437 2C5.26437 3.1024 4.35157 4 3.22868 4C2.1058 4 1.19299 3.1024 1.19299 2ZM2.00727 2C2.00727 2.6616 2.55528 3.2 3.22868 3.2C3.90209 3.2 4.4501 2.6616 4.4501 2C4.4501 1.3384 3.90209 0.8 3.22868 0.8C2.55528 0.8 2.00727 1.3384 2.00727 2Z" fill="white"/>
</svg>
