<svg width="14" height="14" viewBox="0 0 14 14" fill="none" xmlns="http://www.w3.org/2000/svg">
<path d="M7 0.900391C10.3693 0.900391 13.1006 3.63096 13.1006 7C13.1006 10.369 10.3693 13.0996 7 13.0996C3.63093 13.0993 0.900391 10.3689 0.900391 7C0.900391 3.63113 3.63093 0.900654 7 0.900391ZM7 1.80566C5.62242 1.80579 4.30125 2.35312 3.32715 3.32715C2.35299 4.30128 1.80566 5.6224 1.80566 7C1.80566 8.3776 2.35299 9.69872 3.32715 10.6729C4.30125 11.6469 5.62242 12.1942 7 12.1943C8.37776 12.1943 9.69961 11.647 10.6738 10.6729C11.648 9.69872 12.1953 8.3776 12.1953 7C12.1953 5.6224 11.648 4.30128 10.6738 3.32715C9.69961 2.35301 8.37776 1.80566 7 1.80566Z" fill="white" stroke="white" stroke-width="0.2" stroke-linecap="round" stroke-linejoin="round"/>
<path fill-rule="evenodd" clip-rule="evenodd" d="M10.0277 5.1622C10.0521 5.00736 10.0348 4.8488 9.97763 4.70286C9.92041 4.55691 9.82533 4.42885 9.70217 4.33186C9.57901 4.23487 9.43222 4.17245 9.27692 4.15103C9.12162 4.12961 8.96342 4.14997 8.8186 4.21L3.71638 6.319C3.06953 6.5866 3.16434 7.531 3.85199 7.6642L4.80667 7.849C5.07129 7.9 5.34612 7.852 5.57713 7.7134L5.85556 7.5472C5.77621 7.70451 5.75838 7.88575 5.80554 8.05551C5.85269 8.22527 5.96146 8.37135 6.11058 8.4652L8.30076 9.838C8.39975 9.90009 8.51262 9.93663 8.62923 9.94433C8.74584 9.95203 8.86253 9.93065 8.96883 9.88211C9.07514 9.83357 9.16772 9.7594 9.23827 9.66624C9.30882 9.57309 9.35513 9.46387 9.37304 9.3484L10.0277 5.1622ZM6.48501 7.8682L8.30316 6.1252C8.62718 5.815 8.23475 5.3014 7.85012 5.5312L5.2147 7.1086C5.13248 7.15764 5.03509 7.17472 4.94108 7.1566L3.9864 6.9718L9.08802 4.8628C9.11696 4.85081 9.14858 4.84675 9.17961 4.85102C9.21065 4.8553 9.23998 4.86776 9.26461 4.88712C9.28923 4.90649 9.30825 4.93207 9.31972 4.96122C9.33118 4.99037 9.33468 5.02205 9.32984 5.053L8.67579 9.2404L6.48501 7.8682Z" fill="white"/>
</svg>
