<svg width="135" height="128" viewBox="0 0 135 128" fill="none" xmlns="http://www.w3.org/2000/svg">
<path d="M135 127.634C132.71 128.433 129.854 127.918 126.573 126.131L66.8488 83.0568C66.6172 82.8945 66.4282 82.6804 66.298 82.4328C66.1679 82.1851 66.1007 81.9103 66.1007 81.632C66.1008 81.3539 66.168 81.0796 66.298 80.8322C66.4282 80.5845 66.6172 80.3704 66.8488 80.2081L135 20.1076V127.634ZM134.359 0.618301C134.775 1.68669 135 2.81626 135 3.98549V16.5167C133.91 16.5431 132.483 16.9377 131.016 17.8097L44.4572 71.1378C44.1948 71.3049 43.8969 71.4114 43.5861 71.4494C43.2752 71.4873 42.9597 71.4554 42.6632 71.3566L5.91227 60.0079C-2.25429 57.6855 -2.25418 52.2077 7.75211 48.3078L134.359 0.618301Z" fill="#F8F8F6" fill-opacity="0.16"/>
</svg>
