<svg width="12" height="12" viewBox="0 0 12 12" fill="none" xmlns="http://www.w3.org/2000/svg">
<path d="M11.0706 5.7485C11.0084 4.49358 10.4822 3.30312 9.58954 2.41046C8.63744 1.45835 7.34648 0.923077 6 0.923077C4.65352 0.923077 3.36256 1.45835 2.41046 2.41046C1.45835 3.36256 0.923077 4.65352 0.923077 6L0.929387 6.2515C0.991582 7.50642 1.5178 8.69688 2.41046 9.58954C3.36256 10.5417 4.65352 11.0769 6 11.0769C7.34648 11.0769 8.63744 10.5417 9.58954 9.58954C10.5417 8.63744 11.0769 7.34648 11.0769 6L11.0706 5.7485ZM7.74159 7.07542C7.92817 6.96937 8.16985 7.00499 8.31671 7.17278C8.48455 7.3646 8.46524 7.65666 8.27344 7.82452L6.30379 9.54718C6.12977 9.69944 5.87023 9.69944 5.69621 9.54718L3.72656 7.82452L3.66346 7.75601C3.53333 7.58512 3.53635 7.34071 3.68329 7.17278C3.83015 7.00499 4.07183 6.96937 4.25841 7.07542L4.33504 7.12951L6 8.58624L7.66496 7.12951L7.74159 7.07542ZM6 2.33834C6.14765 2.33834 6.28634 2.40914 6.3732 2.52855L8.34285 5.23648C8.49084 5.44034 8.44778 5.72516 8.24639 5.8765L6.27674 7.35397C6.11271 7.47687 5.88729 7.47687 5.72326 7.35397L3.75361 5.8765C3.55222 5.72516 3.50916 5.44034 3.65715 5.23648L5.6268 2.52855L5.70072 2.44832C5.78331 2.37804 5.88923 2.33834 6 2.33834ZM4.67127 5.41046L6 6.40745L7.32782 5.41046L6 3.58413L4.67127 5.41046ZM11.9928 6.29748C11.9192 7.78047 11.298 9.18818 10.2431 10.2431C9.11787 11.3683 7.5913 12 6 12C4.4087 12 2.88213 11.3683 1.75691 10.2431C0.702006 9.18818 0.0807687 7.78047 0.00721154 6.29748L0 6C3.5517e-08 4.4087 0.631693 2.88213 1.75691 1.75691C2.88213 0.631693 4.4087 3.55168e-08 6 0C7.5913 0 9.11787 0.631693 10.2431 1.75691C11.3683 2.88213 12 4.4087 12 6L11.9928 6.29748Z" fill="white"/>
</svg>
