<svg width="12" height="12" viewBox="0 0 12 12" fill="none" xmlns="http://www.w3.org/2000/svg">
<g opacity="0.4">
<path d="M10.9874 3.0033C10.9872 1.90463 10.0962 1.01368 8.99743 1.01348H3.00355C1.90478 1.01368 1.01377 1.90463 1.01356 3.0033V8.9967C1.01377 10.0954 1.90478 10.9863 3.00355 10.9865H8.99743C10.0962 10.9863 10.9872 10.0954 10.9874 8.9967V3.0033ZM8.02679 4.06382C8.1308 3.80381 8.42623 3.67756 8.68626 3.78157C8.94598 3.88566 9.07231 4.18033 8.96854 4.44017C8.7047 5.09971 8.26501 5.61729 7.67518 6C8.26501 6.38271 8.7047 6.90029 8.96854 7.55983C9.07231 7.81967 8.94598 8.11434 8.68626 8.21843C8.42623 8.32244 8.1308 8.19619 8.02679 7.93618C7.77646 7.31041 7.29255 6.84006 6.50727 6.54058V7.74801C6.50722 7.91113 6.42925 8.06459 6.2968 8.15983C6.16426 8.2551 5.99344 8.28034 5.83871 8.22834C5.05386 7.9645 4.36875 7.43988 3.86606 6.73618C3.42655 6.1209 3.14178 5.39095 3.03326 4.62173L2.99777 4.28996L3.00024 4.1868C3.03038 3.95296 3.22145 3.76422 3.46576 3.74608C3.71011 3.72798 3.92726 3.88646 3.99152 4.11334L4.00885 4.21486L4.03774 4.48061C4.12456 5.09554 4.3512 5.6706 4.69144 6.14691C4.91976 6.46648 5.19308 6.72966 5.49371 6.9326V4.25199C5.49379 3.97202 5.72047 3.74525 6.00049 3.74525C6.28051 3.74525 6.50719 3.97202 6.50727 4.25199V5.4586C7.29239 5.15911 7.77649 4.68952 8.02679 4.06382ZM12.001 8.9967C12.0008 10.6555 10.6563 11.9998 8.99743 12H3.00355C1.34464 11.9998 0.000202783 10.6555 0 8.9967V3.0033C0.000202735 1.34453 1.34464 0.000202719 3.00355 0H8.99743C10.6563 0.000202766 12.0008 1.34453 12.001 3.0033V8.9967Z" fill="white"/>
</g>
</svg>
