<svg width="107" height="115" viewBox="0 0 107 115" fill="none" xmlns="http://www.w3.org/2000/svg">
<path d="M45.0379 2.38522C67.7045 -4.06824 91.0184 2.96605 106.408 18.7163V76.018L104.937 74.1089C98.1501 65.296 88.8607 59.903 77.3309 57.8012C86.0243 49.9416 91.0805 40.466 92.2078 29.3999L92.5125 26.4126L89.5242 26.1108L88.7625 26.0337L85.7801 25.7329L85.4773 28.7143C84.3383 39.8949 78.4482 49.3581 67.2801 57.146L64.3807 57.9712L57.7781 34.7827L51.2713 36.6352L64.1336 81.812C56.8863 80.6065 49.8018 77.4797 43.4939 72.6098L42.7664 72.0366C34.903 65.7372 28.7026 57.0055 25.0272 46.9673L23.9949 44.1479L21.1766 45.1821L20.4568 45.4458L17.6434 46.479L18.6736 49.2944L19.0633 50.3335C23.1839 61.0383 29.9363 70.427 38.5369 77.3169L39.3738 77.9751C48.0729 84.6868 58.2235 88.5868 68.5975 89.0883L68.5984 89.0874L69.1307 89.1137L73.3035 89.3139L66.2332 64.478L69.1307 63.6538C82.7272 64.3908 92.7193 69.3317 99.577 78.2358L101.405 80.6098L103.781 78.7846L104.388 78.3178L106.408 76.7651V102.332C106.408 103.656 106.124 104.93 105.602 106.122C102.879 108.817 99.8925 111.275 96.6648 113.449C94.7429 114.066 92.6284 114.408 90.408 114.408H28.8641C16.4296 106.546 6.73101 94.2553 2.38555 78.9926C-6.99057 46.06 12.1053 11.7617 45.0379 2.38522Z" fill="#F8F8F6" fill-opacity="0.03"/>
</svg>
